<svg width="699" height="663" viewBox="0 0 699 663" fill="none" xmlns="http://www.w3.org/2000/svg">
<g clip-path="url(#clip0_594_9370)">
<path d="M405.666 123.363L389.827 113.311H361.194L341.395 122.144L316.113 98.0807L303.015 123.363L283.52 95.3393L244.836 53.9132L220.772 37.7692L210.72 53.9132L201.582 165.398C196.404 167.429 184.707 171.612 179.346 172.099C173.985 172.587 187.875 186.517 195.49 193.422L186.047 218.095L195.49 234.848C184.524 255.053 161.923 296.012 159.242 298.205C156.562 300.399 179.65 302.774 191.53 303.688C178.969 323.726 173.514 362.555 172.398 363.961C172.306 363.986 172.284 364 172.34 364C172.358 364 172.377 363.987 172.398 363.961C174.311 363.424 206.76 357.519 206.76 355.776V387.759H233.565C222.904 405.121 197.013 442.892 192.139 446.547C187.266 450.203 217.726 447.461 220.772 457.209C188.789 495.893 194.271 527.572 195.49 531.227C196.708 534.883 229.91 516.606 220.772 524.526C211.634 532.446 216.812 594.585 216.812 594.585L240.267 579.964L233.565 669.517H628.332L619.498 634.793L583.86 561.079L539.692 492.847L493.697 429.185L515.933 423.702L463.237 369.787L499.18 382.276L515.933 363.086L504.053 339.632H544.87V323.792L499.18 260.13L527.203 248.86L499.18 218.095L536.646 200.732L508.013 182.151L515.933 150.168V81.9367L495.22 45.6889L476.03 53.9132L405.666 123.363Z" fill="#FBEEDA"/>
<path d="M204.51 219.517C191 220.149 191 196.759 191 196.759L448.671 174L535 200.868C535 200.868 493.371 218.563 466.464 223.943C441.432 228.947 410.778 229 410.778 229C410.778 229 218.019 218.885 204.51 219.517Z" fill="#E7D4B1"/>
<path d="M406.581 125.802C428.41 98.9964 477.188 45.5689 497.657 46.3C509.537 58.5856 528.909 103.322 511.364 183.981L539.997 203.475L497.657 220.533L533.296 249.166L502.835 259.218C519.69 279.525 552.059 323.367 546.698 336.282C541.337 349.198 515.223 341.664 502.835 336.282C508.521 345.014 518.187 365.524 511.364 377.709C504.541 389.893 476.842 378.318 463.846 371.007" stroke="#2F2F2F" stroke-width="12.1842" stroke-linecap="round" stroke-linejoin="round"/>
<path d="M478.467 380.145C487.199 391.72 506.673 416.576 514.715 423.399C522.756 430.222 503.445 429.694 492.783 428.577C533.803 478.025 619.255 597.084 632.901 677.743" stroke="#2F2F2F" stroke-width="12.1842" stroke-linecap="round" stroke-linejoin="round"/>
<path d="M391.35 110.265C381.4 110.976 360.037 113.677 354.188 118.794" stroke="#2F2F2F" stroke-width="12.1842" stroke-linecap="round" stroke-linejoin="round"/>
<path d="M341.7 121.232L313.372 93.208C311.341 105.798 306.914 130.004 305.452 126.105C303.625 121.232 244.227 41.1208 222.296 35.9425C204.75 31.7999 203.207 122.552 204.629 168.445L176.91 176.974L201.887 196.773L182.392 217.791L199 229.5" stroke="#2F2F2F" stroke-width="12.1842" stroke-linecap="round" stroke-linejoin="round"/>
<path d="M197.5 231L156.196 298.511C162.897 302.471 179.346 308.624 191.53 301.557C183.813 316.483 169.72 350.233 175.081 365.828C185.946 363.595 208.161 357.848 210.111 352.73C212.548 346.334 203.41 380.449 210.111 390.197C214.172 389.587 224.732 387.151 234.479 382.277C228.489 399.538 210.476 436.984 186.352 448.681C199.247 449.493 224.671 451.605 223.209 453.554C221.381 455.991 191.53 483.405 191.53 533.97C200.262 532.04 218.822 526.598 223.209 520.262C216.203 534.579 205.115 569.425 216.812 594.281C223.716 591.844 237.891 585.082 239.353 577.528C236.104 595.398 230.58 638.449 234.479 667.691" stroke="#2F2F2F" stroke-width="12.1842" stroke-linecap="round" stroke-linejoin="round"/>
<path d="M406.234 201.027C406.234 185.075 375.78 161.872 358.378 198.127" stroke="#E7D4B1" stroke-width="12.1842" stroke-linecap="round" stroke-linejoin="round"/>
<path d="M299.664 308.562C299.664 311.73 300.883 324.096 302.101 335.671" stroke="#2F2F2F" stroke-width="15.2302" stroke-linecap="round" stroke-linejoin="round"/>
<path d="M365.155 342.984C339.365 345.945 283.155 350.307 264.635 344.07" stroke="#2F2F2F" stroke-width="15.2302" stroke-linecap="round" stroke-linejoin="round"/>
<path d="M482.732 572.046C483.341 581.489 489.737 647.284 482.732 643.933C478.061 638.044 468.598 626.814 468.111 629.007C467.501 631.749 470.243 658.554 463.541 674.698" stroke="#2F2F2F" stroke-width="12.1842" stroke-linecap="round" stroke-linejoin="round"/>
<path d="M369.115 596.413L363.632 685.357" stroke="#2F2F2F" stroke-width="12.1842" stroke-linecap="round" stroke-linejoin="round"/>
<path d="M281.388 619.563C282.363 622.731 296.212 659.467 303.015 677.438" stroke="#2F2F2F" stroke-width="12.1842" stroke-linecap="round" stroke-linejoin="round"/>
<path d="M385.563 495.285C384.243 508.383 378.313 537.442 365.154 548.895" stroke="#E7D4B1" stroke-width="9.13811" stroke-linecap="round" stroke-linejoin="round"/>
<path d="M352.056 518.434C350.229 523.308 342.004 552.55 328.297 564.429" stroke="#E7D4B1" stroke-width="9.13811" stroke-linecap="round" stroke-linejoin="round"/>
<path d="M272.555 524.526C270.118 536 267.559 564.003 276.819 584.229" stroke="#E7D4B1" stroke-width="9.13811" stroke-linecap="round" stroke-linejoin="round"/>
<path d="M303.015 573.263C304.741 586.564 310.326 615.664 318.854 625.655" stroke="#E7D4B1" stroke-width="9.13811" stroke-linecap="round" stroke-linejoin="round"/>
<path d="M549.744 584.229C544.262 584.229 518.979 587.58 505.577 607.379" stroke="#E7D4B1" stroke-width="9.13811" stroke-linecap="round" stroke-linejoin="round"/>
<path d="M346.474 395.217C346.474 395.217 328.467 404.243 316.153 403.918C304.872 403.619 288.599 395.217 288.599 395.217" stroke="#E7D4B1" stroke-width="9.13811" stroke-linecap="round" stroke-linejoin="round"/>
<path d="M231.226 161.872C237.02 159.471 250.678 150.001 249.21 146.767C247.741 143.532 242.439 130.966 246.254 127.112C250.069 123.257 259.494 139.976 268.474 131.195C271.615 128.124 251.221 102.54 239.528 89.5467C227.836 76.5533 227.567 163.388 231.226 161.872Z" fill="#F0BA91"/>
<path d="M464.958 151.428C463.739 152.647 482.929 168.182 486.585 166.354C490.24 164.526 499.073 88.9844 490.544 87.4615C487.232 86.8701 451.86 125.537 450.032 128.888C448.57 131.569 450.032 134.574 450.641 135.589C456.53 133.254 469.405 129.68 473.791 134.066C479.274 139.549 466.176 150.21 464.958 151.428Z" fill="#F0BA91"/>
<path d="M336.503 287.389C340.18 298.714 314.436 316.408 301.104 323.839C292.908 322.504 275.282 303.815 269.699 291.802C265.233 282.191 285.949 276.291 296.865 274.543C308.546 274.106 332.827 276.063 336.503 287.389Z" fill="#2F2F2F"/>
<path d="M361.632 245.901C361.632 257.509 367.632 266.919 375.034 266.919C382.436 266.919 388.437 257.509 388.437 245.901C388.437 234.293 382.436 231.085 375.034 231.085C367.632 231.085 361.632 234.293 361.632 245.901Z" fill="#2F2F2F"/>
<path d="M256.925 245.279C254.879 256.705 259.126 267.025 266.412 268.33C273.698 269.635 281.264 261.431 283.311 250.005C285.357 238.579 280.822 232.39 273.535 231.085C266.249 229.78 258.972 233.853 256.925 245.279Z" fill="#2F2F2F"/>
<path d="M289.561 220.207C267.902 217.389 252.376 214.782 242.201 230.362" stroke="#E7D4B1" stroke-width="12.1842" stroke-linecap="round" stroke-linejoin="round"/>
<path d="M209.588 220.082L417.715 233.255" stroke="#3A3737" stroke-width="15.9589" stroke-linecap="round" stroke-linejoin="round"/>
<path d="M346.716 279.055C334.198 266.884 333.826 243.432 335.519 230.545L417.607 235.344L416.087 251.081C414.855 274.945 399.762 285.746 392.369 288.164C373.443 295.105 359.234 291.227 346.716 279.055Z" fill="#373A2F" fill-opacity="0.6"/>
<path d="M228.066 274.062C215.548 261.891 215.177 238.439 216.869 225.552L298.957 230.351L297.437 246.088C296.205 269.952 281.112 280.753 273.72 283.171C254.794 290.113 240.584 286.234 228.066 274.062Z" fill="#373A2F" fill-opacity="0.6"/>
<ellipse cx="348.862" cy="178.595" rx="206.508" ry="38.8332" fill="#343433"/>
<path d="M265.476 45.2378L220.622 162.941L484.025 157.523L446.396 50.3553C437.486 24.587 422.012 22.1586 415.39 24.1655C403.589 23.4431 382.577 31.892 373.546 36.2068C353.558 44.6357 334.312 39.7188 327.187 36.2068C287.451 18.8673 269.489 35.0027 265.476 45.2378Z" fill="#343433"/>
<path d="M461.147 120.552C380.711 142.104 285.143 129.532 243.5 120.552L231.459 146.741C317.434 173.714 426.829 158.883 471.683 149.451L461.147 120.552Z" fill="#8D8D8D"/>
</g>
<defs>
<clipPath id="clip0_594_9370">
<rect width="699" height="662.818" fill="white" transform="matrix(-1 0 0 1 699 0)"/>
</clipPath>
</defs>
</svg>
