<svg width="393" height="380" viewBox="0 0 393 380" fill="none" xmlns="http://www.w3.org/2000/svg">
<g clip-path="url(#clip0_595_9475)">
<path d="M228.573 70.7252L219.492 64.9623H203.076L191.725 70.0266L177.231 56.2307L169.722 70.7252L158.545 54.659L136.367 30.909L122.571 21.6535L116.808 30.909L111.569 94.8244C108.6 95.9887 101.894 98.3869 98.8209 98.6664C95.7473 98.9458 103.711 106.932 108.076 110.891L102.663 125.036L108.076 134.641C101.79 146.225 88.8319 169.707 87.2952 170.964C85.7584 172.222 98.9955 173.584 105.806 174.108C98.605 185.595 95.4776 207.857 94.8373 208.662C94.7847 208.677 94.7724 208.685 94.8044 208.685C94.8145 208.685 94.8255 208.677 94.8373 208.662C95.9346 208.354 114.538 204.969 114.538 203.97V222.306H129.905C123.793 232.26 108.95 253.915 106.155 256.01C103.361 258.106 120.825 256.534 122.571 262.122C104.234 284.301 107.378 302.462 108.076 304.558C108.775 306.654 127.81 296.176 122.571 300.716C117.332 305.256 120.301 340.881 120.301 340.881L133.747 332.499L129.905 383.841H356.229L351.165 363.933L330.733 321.672L305.411 282.554L279.041 246.056L291.79 242.913L261.578 212.003L282.185 219.163L291.79 208.161L284.979 194.714H308.38V185.633L282.185 149.135L298.251 142.674L282.185 125.036L303.665 115.082L287.249 104.429L291.79 86.0928V46.9752L279.915 26.1939L268.913 30.909L228.573 70.7252Z" fill="#FBEEDA"/>
<path d="M119.151 126.079C111.648 126.445 111.648 112.904 111.648 112.904L254.745 99.7285L302.688 115.282C302.688 115.282 279.569 125.526 264.626 128.641C250.725 131.538 233.701 131.568 233.701 131.568C233.701 131.568 126.653 125.713 119.151 126.079Z" fill="#E7D4B1"/>
<path d="M229.097 72.1233C241.612 56.7557 269.577 26.1251 281.312 26.5443C288.123 33.5877 299.229 59.2353 289.17 105.478L305.586 116.654L281.312 126.434L301.744 142.849L284.281 148.612C293.944 160.254 312.501 185.39 309.428 192.794C306.354 200.199 291.382 195.879 284.281 192.794C287.54 197.8 293.082 209.559 289.17 216.544C285.259 223.529 269.379 216.893 261.928 212.702" stroke="#2F2F2F" stroke-width="6.98529" stroke-linecap="round" stroke-linejoin="round"/>
<path d="M270.31 217.941C275.316 224.577 286.481 238.827 291.091 242.739C295.701 246.651 284.63 246.348 278.518 245.708C302.035 274.056 351.025 342.314 358.848 388.557" stroke="#2F2F2F" stroke-width="6.98529" stroke-linecap="round" stroke-linejoin="round"/>
<path d="M220.365 63.2163C214.66 63.6238 202.413 65.1722 199.06 68.106" stroke="#2F2F2F" stroke-width="6.98529" stroke-linecap="round" stroke-linejoin="round"/>
<path d="M191.9 69.5033L175.659 53.4371C174.495 60.6553 171.957 74.5327 171.119 72.2974C170.071 69.5033 136.018 23.575 123.444 20.6063C113.385 18.2313 112.5 70.2601 113.315 96.5713L97.4238 101.461L111.744 112.812L100.567 124.862" stroke="#2F2F2F" stroke-width="6.98529" stroke-linecap="round" stroke-linejoin="round"/>
<path d="M112.617 128.704L85.5488 171.139C89.3907 173.409 98.8208 176.937 105.806 172.886C101.382 181.443 93.3024 200.792 96.376 209.733C102.605 208.452 115.341 205.158 116.459 202.224C117.856 198.557 112.617 218.115 116.459 223.704C118.787 223.354 124.841 221.957 130.429 219.163C126.995 229.059 116.668 250.527 102.837 257.233C110.23 257.699 124.806 258.909 123.968 260.027C122.92 261.424 105.806 277.141 105.806 306.13C110.812 305.024 121.453 301.904 123.968 298.272C119.951 306.479 113.595 326.457 120.301 340.707C124.259 339.31 132.385 335.433 133.223 331.103C131.361 341.348 128.194 366.029 130.429 382.794" stroke="#2F2F2F" stroke-width="6.98529" stroke-linecap="round" stroke-linejoin="round"/>
<path d="M228.898 115.251C228.898 106.105 211.438 92.803 201.461 113.588" stroke="#E7D4B1" stroke-width="6.98529" stroke-linecap="round" stroke-linejoin="round"/>
<path d="M167.801 176.902C167.801 178.718 168.499 185.808 169.198 192.444" stroke="#2F2F2F" stroke-width="8.73162" stroke-linecap="round" stroke-linejoin="round"/>
<path d="M205.346 196.636C190.561 198.334 158.335 200.835 147.718 197.259" stroke="#2F2F2F" stroke-width="8.73162" stroke-linecap="round" stroke-linejoin="round"/>
<path d="M272.755 327.96C273.104 333.374 276.771 371.094 272.755 369.173C270.077 365.797 264.652 359.359 264.372 360.616C264.023 362.188 265.595 377.556 261.753 386.811" stroke="#2F2F2F" stroke-width="6.98529" stroke-linecap="round" stroke-linejoin="round"/>
<path d="M207.617 341.929L204.474 392.922" stroke="#2F2F2F" stroke-width="6.98529" stroke-linecap="round" stroke-linejoin="round"/>
<path d="M157.323 355.202C157.881 357.018 165.821 378.079 169.721 388.382" stroke="#2F2F2F" stroke-width="6.98529" stroke-linecap="round" stroke-linejoin="round"/>
<path d="M217.047 283.952C216.29 291.461 212.891 308.121 205.347 314.687" stroke="#E7D4B1" stroke-width="5.23897" stroke-linecap="round" stroke-linejoin="round"/>
<path d="M197.837 297.223C196.79 300.018 192.075 316.782 184.216 323.593" stroke="#E7D4B1" stroke-width="5.23897" stroke-linecap="round" stroke-linejoin="round"/>
<path d="M152.258 300.716C150.861 307.294 149.394 323.349 154.703 334.944" stroke="#E7D4B1" stroke-width="5.23897" stroke-linecap="round" stroke-linejoin="round"/>
<path d="M169.721 328.658C170.711 336.283 173.913 352.966 178.802 358.694" stroke="#E7D4B1" stroke-width="5.23897" stroke-linecap="round" stroke-linejoin="round"/>
<path d="M311.174 334.945C308.03 334.945 293.536 336.866 285.852 348.217" stroke="#E7D4B1" stroke-width="5.23897" stroke-linecap="round" stroke-linejoin="round"/>
<path d="M194.637 226.582C194.637 226.582 184.313 231.757 177.253 231.57C170.786 231.399 161.457 226.582 161.457 226.582" stroke="#E7D4B1" stroke-width="5.23897" stroke-linecap="round" stroke-linejoin="round"/>
<path d="M128.564 92.8028C131.886 91.4263 139.716 85.9973 138.874 84.1428C138.032 82.2883 134.992 75.0841 137.179 72.8743C139.367 70.6645 144.77 80.2495 149.918 75.2155C151.719 73.4546 140.027 58.7873 133.324 51.3381C126.62 43.8888 126.466 93.6719 128.564 92.8028Z" fill="#F0BA91"/>
<path d="M262.565 86.8154C261.866 87.5139 272.868 96.4202 274.964 95.3723C277.059 94.3245 282.123 51.0156 277.234 50.1426C275.335 49.8035 255.055 71.9718 254.008 73.8928C253.169 75.4296 254.008 77.1524 254.357 77.7345C257.733 76.3957 265.114 74.3466 267.629 76.8613C270.772 80.0047 263.263 86.1169 262.565 86.8154Z" fill="#F0BA91"/>
<path d="M188.921 164.763C191.028 171.256 176.269 181.4 168.626 185.66C163.927 184.895 153.822 174.18 150.621 167.293C148.061 161.783 159.937 158.401 166.196 157.398C172.892 157.148 186.813 158.27 188.921 164.763Z" fill="#2F2F2F"/>
<path d="M203.327 140.977C203.327 147.632 206.767 153.027 211.011 153.027C215.255 153.027 218.695 147.632 218.695 140.977C218.695 134.323 215.255 132.483 211.011 132.483C206.767 132.483 203.327 134.323 203.327 140.977Z" fill="#2F2F2F"/>
<path d="M143.297 140.621C142.124 147.171 144.559 153.088 148.736 153.836C152.914 154.585 157.251 149.881 158.424 143.33C159.598 136.78 156.997 133.232 152.82 132.483C148.643 131.735 144.471 134.07 143.297 140.621Z" fill="#2F2F2F"/>
<path d="M162.008 126.247C149.59 124.631 140.689 123.137 134.856 132.069" stroke="#E7D4B1" stroke-width="6.98529" stroke-linecap="round" stroke-linejoin="round"/>
<path d="M116.159 126.175L235.48 133.727" stroke="#3A3737" stroke-width="9.1494" stroke-linecap="round" stroke-linejoin="round"/>
<path d="M194.775 159.985C187.599 153.007 187.386 139.562 188.356 132.174L235.418 134.925L234.546 143.947C233.84 157.629 225.187 163.821 220.949 165.207C210.098 169.187 201.952 166.963 194.775 159.985Z" fill="#373A2F" fill-opacity="0.6"/>
<path d="M126.752 157.123C119.576 150.145 119.362 136.7 120.333 129.311L167.395 132.063L166.523 141.085C165.817 154.766 157.164 160.959 152.926 162.345C142.075 166.324 133.929 164.101 126.752 157.123Z" fill="#373A2F" fill-opacity="0.6"/>
<ellipse cx="196.006" cy="102.39" rx="118.393" ry="22.2634" fill="#343433"/>
<path d="M148.2 25.9353L122.485 93.416L273.496 90.3094L251.923 28.8692C246.815 14.096 237.944 12.7038 234.147 13.8544C227.382 13.4401 215.335 18.284 210.158 20.7577C198.698 25.5901 187.664 22.7712 183.58 20.7577C160.798 10.8168 150.501 20.0674 148.2 25.9353Z" fill="#343433"/>
<path d="M260.38 69.1135C214.265 81.4699 159.475 74.262 135.601 69.1135L128.698 84.1283C177.988 99.592 240.705 91.0893 266.42 85.6816L260.38 69.1135Z" fill="#8D8D8D"/>
</g>
<defs>
<clipPath id="clip0_595_9475">
<rect width="400.744" height="380" fill="white" transform="matrix(-1 0 0 1 396.744 0)"/>
</clipPath>
</defs>
</svg>
