<svg width="174" height="56" viewBox="0 0 174 56" fill="none" xmlns="http://www.w3.org/2000/svg">
<path d="M57.2963 9.38183L4.52523 5.38947L0.77108 40.2858L7.90377 50.5905L53.8789 54.5539L57.2963 9.38183Z" fill="#B899FF"/>
<path d="M4.25865 0.1764L56.8923 3.98126L57.3469 9.60349L4.57583 5.61113L4.25865 0.1764Z" fill="#A081E9"/>
<path d="M38.3058 18.0532C38.7649 17.7018 39.3961 17.6506 40.0539 17.8676C40.7113 18.0845 41.3876 18.5674 41.9229 19.2668C42.4583 19.9662 42.7476 20.7451 42.7854 21.4364C42.8231 22.1282 42.6094 22.7246 42.1502 23.0761C41.691 23.4273 41.0601 23.4774 40.4023 23.2603C39.7448 23.0434 39.0686 22.5606 38.5333 21.8612C37.998 21.1617 37.7085 20.3828 37.6708 19.6915C37.6332 19.0001 37.8469 18.4047 38.3058 18.0532Z" fill="black" stroke="black" stroke-width="0.147668"/>
<path d="M21.0094 15.7236C21.3902 16.0303 21.5344 16.5789 21.4375 17.238C21.3407 17.8951 21.0053 18.6467 20.4517 19.3342C19.8981 20.0217 19.2352 20.5098 18.614 20.7445C17.9908 20.9798 17.4233 20.9568 17.0425 20.6501C16.6616 20.3435 16.518 19.794 16.615 19.1349C16.7118 18.4779 17.0472 17.7262 17.6008 17.0387C18.1545 16.3511 18.8172 15.8631 19.4385 15.6284C20.0618 15.3931 20.6286 15.4169 21.0094 15.7236Z" fill="black" stroke="black" stroke-width="0.147668"/>
<path d="M33.3857 22.5964C28.9533 20.3011 24.848 21.3579 23.3494 22.1732C21.3931 24.121 25.6774 27.152 28.0641 28.424C31.6848 27.4379 37.8181 24.8918 33.3857 22.5964Z" fill="black"/>
<path d="M12.4832 25.3508C12.3485 24.9314 11.8993 24.7004 11.4799 24.8351C11.0604 24.9697 10.8295 25.4189 10.9641 25.8384L11.7236 25.5946L12.4832 25.3508ZM11.7236 25.5946L10.9641 25.8384C11.85 28.5988 13.7513 31.965 16.8456 33.2129C20.0692 34.5129 24.1279 33.3657 28.9222 28.101L28.3324 27.564L27.7426 27.0269C23.1204 32.1025 19.7376 32.6589 17.4423 31.7333C15.0177 30.7555 13.3228 27.9668 12.4832 25.3508L11.7236 25.5946Z" fill="black"/>
<path d="M45.4389 27.8191C45.7108 27.4725 46.2123 27.412 46.5588 27.684C46.9054 27.9559 46.9659 28.4574 46.694 28.804L46.0664 28.3115L45.4389 27.8191ZM46.0664 28.3115L46.694 28.804C44.1896 31.9954 40.2841 34.0662 36.5578 34.1973C34.6839 34.2632 32.8355 33.8379 31.2459 32.7913C29.652 31.7419 28.3694 30.1011 27.5789 27.8255L28.3324 27.5637L29.0859 27.3019C29.7752 29.2861 30.8561 30.6245 32.1233 31.4588C33.3949 32.2961 34.9052 32.6591 36.5017 32.6029C39.7163 32.4898 43.198 30.6748 45.4389 27.8191L46.0664 28.3115Z" fill="black"/>
<path d="M21.5415 32.8514C21.5415 32.8514 22.1462 42.6326 26.6147 43.2159C31.3253 43.8308 33.7532 33.3664 33.7532 33.3664" stroke="black" stroke-width="1.5954"/>
<path d="M27.0233 36.669C27.172 33.1423 23.7238 33.2166 21.8557 32.9181L28.1284 28.5951L33.0177 33.9425C28.5561 32.8316 27.5357 33.8959 27.0233 36.669Z" fill="black"/>
<path d="M7.90506 50.5903L0.770996 40.2855L9.17334 40.127L7.90506 50.5903Z" fill="#D1BDFF"/>
<path d="M74.1806 35.8689C74.1336 34.1078 74.1454 31.4075 74.2158 27.7678C74.2628 24.1282 74.2863 21.7449 74.2863 20.6178C74.2863 20.0307 74.4624 19.5963 74.8146 19.3146C75.1668 19.0093 75.5778 18.8567 76.0474 18.8567C76.517 18.8567 76.9279 19.0093 77.2802 19.3146C77.6324 19.5963 77.8085 20.0307 77.8085 20.6178C77.8085 21.7449 77.785 24.1165 77.738 27.7326C77.6676 31.3487 77.6559 34.0374 77.7028 35.7985C77.7028 36.362 77.5267 36.7964 77.1745 37.1017C76.8223 37.4069 76.4113 37.5596 75.9417 37.5596C75.4721 37.5831 75.0612 37.4539 74.7089 37.1721C74.3567 36.8904 74.1806 36.4559 74.1806 35.8689ZM77.4563 12.7632C77.9494 13.2564 78.1607 13.7729 78.0903 14.313C78.0433 14.8531 77.8202 15.3227 77.421 15.7219C77.0453 16.0976 76.5875 16.3207 76.0474 16.3911C75.5073 16.4381 74.9907 16.215 74.4976 15.7219C74.0045 15.2288 73.7932 14.7122 73.8636 14.1721C73.9341 13.6321 74.1689 13.1624 74.5681 12.7632C74.9672 12.3641 75.4369 12.141 75.9769 12.094C76.517 12.0236 77.0101 12.2467 77.4563 12.7632ZM92.6854 36.996C89.985 34.0139 87.8952 31.2196 86.4159 28.6132L84.5139 30.1982C84.4669 30.2451 84.42 30.2803 84.373 30.3038C84.326 32.1354 84.2556 34.0021 84.1617 35.9041C84.1382 36.4912 83.9386 36.9256 83.5629 37.2073C83.1872 37.4656 82.7645 37.5831 82.2949 37.5596C81.8487 37.5361 81.4496 37.3717 81.0973 37.0665C80.7686 36.7612 80.616 36.3268 80.6395 35.7632C80.8978 30.3625 81.0269 23.142 81.0269 14.1017C81.0269 13.5147 81.203 13.0802 81.5552 12.7985C81.9074 12.4932 82.3184 12.3406 82.788 12.3406C83.2576 12.3406 83.6686 12.4932 84.0208 12.7985C84.373 13.0802 84.5491 13.5147 84.5491 14.1017C84.5491 18.704 84.5256 22.555 84.4787 25.6545C87.9069 22.7898 90.2786 20.7234 91.5935 19.4554C91.9692 19.0093 92.3801 18.798 92.8263 18.8214C93.2959 18.8214 93.6951 18.9858 94.0238 19.3146C94.3761 19.6198 94.5874 20.0073 94.6578 20.4769C94.7518 20.923 94.5991 21.3574 94.1999 21.7801C93.0259 22.9307 91.347 24.4452 89.1632 26.3237C90.5721 28.9067 92.615 31.6892 95.2918 34.6714C95.691 35.094 95.8554 35.5284 95.7849 35.9746C95.7145 36.4207 95.5032 36.8082 95.1509 37.1369C94.7987 37.4422 94.3878 37.6065 93.9182 37.63C93.472 37.6535 93.0611 37.4422 92.6854 36.996ZM96.4107 44.6392C95.8236 44.6862 95.3658 44.5453 95.037 44.2165C94.7083 43.9113 94.5322 43.5238 94.5087 43.0542C94.4617 42.5846 94.5674 42.1502 94.8257 41.751C95.084 41.3753 95.4949 41.164 96.0585 41.117C96.3872 41.0935 96.8099 41.0583 97.3264 41.0113C97.843 40.9644 98.1835 40.8822 98.3479 40.7648L98.7001 40.5534C99.2637 40.2717 99.7685 39.485 100.215 38.1936C100.356 37.7944 100.496 37.5126 100.637 37.3482C100.473 37.1604 100.344 36.9373 100.25 36.679C99.8272 34.871 98.9584 32.1941 97.6434 28.6484C96.4694 25.5254 95.6006 23.0246 95.037 21.1461C94.8726 20.5825 94.9196 20.1129 95.1779 19.7372C95.4362 19.3615 95.7884 19.115 96.2346 18.9976C96.6807 18.8567 97.1151 18.8801 97.5378 19.068C97.9604 19.2324 98.254 19.5963 98.4183 20.1599C98.8645 21.6627 99.7098 24.0813 100.954 27.4156L102.293 31.0787C103.936 26.0537 105.439 22.2849 106.801 19.7724C107.083 19.2558 107.447 18.9623 107.893 18.8919C108.363 18.798 108.797 18.8684 109.196 19.1032C109.595 19.3145 109.877 19.6315 110.042 20.0542C110.229 20.4769 110.182 20.9465 109.901 21.4631C109.29 22.5902 108.656 23.9639 107.999 25.5841C107.553 26.6642 107.177 27.6152 106.872 28.4371C106.59 29.2354 106.296 30.0808 105.991 30.973C105.709 31.8653 105.369 32.969 104.97 34.2839C104.829 34.7535 104.735 35.0823 104.688 35.2701C104.57 35.5754 104.406 36.1859 104.195 37.1017C103.936 37.9705 103.725 38.6749 103.561 39.215C102.903 41.0466 102.011 42.4085 100.884 43.3008C100.555 43.5591 100.226 43.7704 99.8977 43.9348C99.5689 44.1226 99.2284 44.2518 98.8762 44.3222C98.7353 44.3692 98.477 44.4044 98.1013 44.4279C97.7256 44.4748 97.3499 44.5218 96.9742 44.5688C96.622 44.6157 96.4342 44.6392 96.4107 44.6392ZM122.272 37.4539C122.132 37.4069 121.85 37.3365 121.427 37.2426C120.981 37.1486 120.605 37.043 120.3 36.9256C119.666 36.6908 119.079 36.362 118.539 35.9394C118.022 35.5167 117.588 34.9062 117.236 34.1078C116.977 33.4738 116.813 32.2293 116.743 30.3743C116.672 28.9419 116.66 27.0986 116.707 24.8444C116.707 24.4217 116.719 23.7173 116.743 22.7311L116.461 22.7663C115.874 22.8133 115.416 22.6841 115.087 22.3789C114.758 22.0501 114.571 21.6627 114.524 21.2165C114.477 20.7704 114.571 20.3595 114.805 19.9838C115.064 19.5846 115.475 19.338 116.038 19.2441L116.848 19.1737C116.872 17.9291 116.907 16.6729 116.954 15.4049C116.977 14.8179 117.177 14.3952 117.553 14.1369C117.928 13.8551 118.339 13.726 118.785 13.7495C119.255 13.7495 119.654 13.9021 119.983 14.2074C120.335 14.5126 120.5 14.9588 120.476 15.5458L120.37 18.8919L121.533 18.8214C122.12 18.798 122.566 18.9506 122.871 19.2793C123.2 19.6081 123.376 20.0073 123.4 20.4769C123.447 20.923 123.341 21.3339 123.083 21.7096C122.824 22.0854 122.402 22.2967 121.815 22.3436L120.265 22.4141C120.241 23.5412 120.23 24.363 120.23 24.8796C120.183 27.0869 120.194 28.8832 120.265 30.2686C120.288 31.1139 120.335 31.7949 120.406 32.3115C120.476 32.8281 120.664 33.1803 120.969 33.3681C121.016 33.4151 121.192 33.4856 121.498 33.5795C121.826 33.6734 122.179 33.7791 122.554 33.8965C122.93 33.9904 123.212 34.0726 123.4 34.143C123.94 34.3074 124.292 34.6127 124.456 35.0588C124.621 35.4815 124.632 35.9159 124.491 36.362C124.351 36.7847 124.081 37.1252 123.681 37.3835C123.306 37.6183 122.836 37.6418 122.272 37.4539ZM134.19 36.996C133.345 37.3248 132.394 37.5126 131.337 37.5596C129.154 37.6535 127.346 37.0782 125.913 35.8337C124.692 34.824 123.906 33.5677 123.553 32.0649C123.201 30.5621 123.189 29.2119 123.518 28.0144C123.847 26.8168 124.352 25.6428 125.033 24.4922C125.902 22.9894 126.935 21.7449 128.132 20.7587C129.353 19.7724 130.68 19.1619 132.112 18.9271C133.568 18.6923 135.106 18.9741 136.726 19.7724C136.914 19.8664 137.114 20.0072 137.325 20.1951C137.56 20.383 137.76 20.5473 137.924 20.6882L138.382 21.1461C138.523 21.287 138.593 21.3692 138.593 21.3927C138.969 21.7214 139.168 22.1441 139.192 22.6606C139.497 24.0695 139.697 25.5489 139.791 27.0986C139.838 27.8735 139.861 28.801 139.861 29.8812C139.861 30.9378 139.861 32.0062 139.861 33.0864C139.885 34.143 139.908 35.0471 139.932 35.7985C139.955 36.362 139.791 36.7964 139.439 37.1017C139.11 37.4069 138.711 37.5596 138.241 37.5596C137.795 37.5831 137.384 37.4656 137.008 37.2073C136.633 36.9256 136.433 36.5029 136.409 35.9394V35.411C135.705 36.1389 134.965 36.6673 134.19 36.996ZM132.605 33.826C133.028 33.7086 133.603 33.4621 134.331 33.0864C135.059 32.7107 135.682 32.1354 136.198 31.3605C136.245 31.3135 136.304 31.2666 136.374 31.2196C136.374 28.0496 136.175 25.5019 135.775 23.5764C135.564 23.2946 135.318 23.0598 135.036 22.872C133.909 22.2615 132.723 22.2497 131.478 22.8368C130.234 23.4003 129.142 24.4687 128.203 26.042C126.348 29.1885 126.336 31.5601 128.167 33.1568C128.708 33.603 129.377 33.8847 130.175 34.0021C130.974 34.1196 131.784 34.0608 132.605 33.826ZM146.356 37.5596C144.619 37.2543 143.362 36.5499 142.588 35.4462C142.212 34.9531 141.942 34.2957 141.777 33.4738L141.637 32.6989C141.59 32.4641 141.543 32.2763 141.496 32.1354C141.331 31.6188 141.378 31.1844 141.637 30.8322C141.895 30.4565 142.247 30.1982 142.693 30.0573C143.139 29.9164 143.574 29.9281 143.996 30.0925C144.419 30.2569 144.713 30.6208 144.877 31.1844C144.947 31.4427 145.018 31.7362 145.088 32.0649C145.112 32.1823 145.135 32.288 145.159 32.3819C145.159 32.4993 145.194 32.6872 145.264 32.9455C145.335 33.2507 145.499 33.509 145.758 33.7204C146.039 33.9787 146.462 34.143 147.026 34.2135C147.965 34.4013 148.975 34.3778 150.055 34.143C151.111 33.9082 151.933 33.5677 152.52 33.1216C152.943 32.7459 153.119 32.3584 153.049 31.9593C152.978 31.3018 152.567 30.8087 151.816 30.4799C151.346 30.2686 150.125 29.9868 148.153 29.6346C146.11 29.2354 144.666 28.7188 143.82 28.0848C142.271 26.9343 141.766 25.2201 142.306 22.9424C142.635 21.6275 143.304 20.6647 144.313 20.0542C145.347 19.4202 146.486 19.068 147.73 18.9976C148.787 18.9506 149.855 19.0797 150.935 19.385C152.039 19.6668 152.978 20.066 153.753 20.5825C153.8 20.606 153.929 20.7234 154.14 20.9348C154.352 21.1461 154.587 21.3809 154.845 21.6392C155.127 21.874 155.361 22.0971 155.549 22.3084C155.761 22.4963 155.866 22.5902 155.866 22.5902C156.289 23.0129 156.477 23.4473 156.43 23.8934C156.383 24.3161 156.195 24.6918 155.866 25.0205C155.538 25.3258 155.15 25.5019 154.704 25.5489C154.258 25.5723 153.823 25.3962 153.401 25.0205C153.166 24.8092 152.931 24.5861 152.696 24.3513L152.203 23.7525C152.062 23.6351 151.898 23.5177 151.71 23.4003C151.264 23.1185 150.689 22.8837 149.984 22.6959C149.28 22.4845 148.587 22.3906 147.906 22.4141C146.662 22.4845 145.945 22.9189 145.758 23.7173C145.546 24.5626 145.617 25.1144 145.969 25.3727C146.392 25.678 147.343 25.9833 148.822 26.2885C151.006 26.6642 152.497 27.0282 153.295 27.3804C155.221 28.2492 156.312 29.6464 156.571 31.5718C156.782 33.1451 156.195 34.507 154.81 35.6576C153.753 36.5264 152.415 37.1252 150.794 37.4539C149.245 37.8061 147.765 37.8413 146.356 37.5596ZM170.311 36.996C167.611 34.0139 165.521 31.2196 164.042 28.6132L162.14 30.1982C162.093 30.2451 162.046 30.2803 161.999 30.3038C161.952 32.1354 161.882 34.0021 161.788 35.9041C161.764 36.4912 161.565 36.9256 161.189 37.2073C160.813 37.4656 160.391 37.5831 159.921 37.5596C159.475 37.5361 159.076 37.3717 158.723 37.0665C158.395 36.7612 158.242 36.3268 158.266 35.7632C158.524 30.3625 158.653 23.142 158.653 14.1017C158.653 13.5147 158.829 13.0802 159.181 12.7985C159.534 12.4932 159.944 12.3406 160.414 12.3406C160.884 12.3406 161.295 12.4932 161.647 12.7985C161.999 13.0802 162.175 13.5147 162.175 14.1017C162.175 18.704 162.152 22.555 162.105 25.6545C165.533 22.7898 167.905 20.7234 169.22 19.4554C169.595 19.0093 170.006 18.798 170.452 18.8214C170.922 18.8214 171.321 18.9858 171.65 19.3146C172.002 19.6198 172.213 20.0073 172.284 20.4769C172.378 20.923 172.225 21.3574 171.826 21.7801C170.652 22.9307 168.973 24.4452 166.789 26.3237C168.198 28.9067 170.241 31.6892 172.918 34.6714C173.317 35.094 173.481 35.5284 173.411 35.9746C173.341 36.4207 173.129 36.8082 172.777 37.1369C172.425 37.4422 172.014 37.6065 171.544 37.63C171.098 37.6535 170.687 37.4422 170.311 36.996Z" fill="black"/>
</svg>
