<svg width="304" height="281" viewBox="0 0 304 281" fill="none" xmlns="http://www.w3.org/2000/svg">
<g clip-path="url(#clip0_557_1689)">
<path d="M260 6H44C23.0132 6 6 23.0132 6 44V587.023C6 608.01 23.0132 625.023 44 625.023H260C280.987 625.023 298 608.01 298 587.023V44C298 23.0132 280.987 6 260 6Z" stroke="black" stroke-width="12"/>
<g clip-path="url(#clip1_557_1689)">
<path d="M17 43.9237C17 32.9202 25.9201 24 36.9237 24H267.076C278.08 24 287 32.9201 287 43.9237V463.695H17V43.9237Z" fill="white"/>
<path d="M32.6296 50.4847H29.1334V41.7715H32.6115C34.1573 41.7715 35.1717 42.6289 35.1717 43.9453C35.1717 44.8691 34.4894 45.6964 33.6199 45.8413V45.8896C34.8034 46.0224 35.6004 46.8618 35.6004 48.0211C35.6004 49.5548 34.4833 50.4847 32.6296 50.4847ZM30.486 42.8765V45.479H32.0016C33.173 45.479 33.8191 44.9959 33.8191 44.1325C33.8191 43.3233 33.2636 42.8765 32.2854 42.8765H30.486ZM30.486 49.3797H32.3518C33.5716 49.3797 34.2176 48.8786 34.2176 47.9366C34.2176 46.9946 33.5534 46.5115 32.2733 46.5115H30.486V49.3797ZM36.4037 50.4847V44.1325H37.708V50.4847H36.4037ZM37.0559 43.2026C36.6392 43.2026 36.3011 42.8705 36.3011 42.4599C36.3011 42.0432 36.6392 41.7111 37.0559 41.7111C37.4786 41.7111 37.8167 42.0432 37.8167 42.4599C37.8167 42.8705 37.4786 43.2026 37.0559 43.2026ZM41.5003 49.428C42.5208 49.428 43.191 48.6008 43.191 47.2905C43.191 45.9862 42.5208 45.1288 41.5003 45.1288C40.4979 45.1288 39.8458 45.9681 39.8458 47.2905C39.8458 48.6189 40.4979 49.428 41.5003 49.428ZM41.5124 52.8759C40.0149 52.8759 38.9038 52.0788 38.7408 50.9799H40.0511C40.2383 51.5112 40.818 51.8615 41.5607 51.8615C42.5812 51.8615 43.185 51.2818 43.185 50.4123V49.3677H43.1608C42.8046 50.056 42.0558 50.5089 41.1501 50.5089C39.556 50.5089 38.5114 49.265 38.5114 47.2844C38.5114 45.2858 39.5499 44.0298 41.1803 44.0298C42.08 44.0298 42.8167 44.4827 43.2031 45.2194H43.2273V44.1325H44.4953V50.37C44.4953 51.8856 43.3239 52.8759 41.5124 52.8759ZM50.4616 45.0684C49.5498 45.0684 48.9098 45.7628 48.8433 46.7229H52.0195C51.9893 45.7507 51.3734 45.0684 50.4616 45.0684ZM52.0134 48.6189H53.2513C53.0701 49.7783 51.9712 50.6055 50.516 50.6055C48.6501 50.6055 47.521 49.3435 47.521 47.3388C47.521 45.3462 48.6682 44.0177 50.4616 44.0177C52.2248 44.0177 53.3238 45.2616 53.3238 47.1878V47.6347H48.8373V47.7132C48.8373 48.8182 49.5015 49.5488 50.5461 49.5488C51.2889 49.5488 51.8383 49.1744 52.0134 48.6189ZM59.477 44.1325L57.2006 50.4847H55.7997L53.5112 44.1325H54.9L56.4941 49.2107H56.5182L58.1124 44.1325H59.477ZM62.4541 45.0684C61.5423 45.0684 60.9023 45.7628 60.8359 46.7229H64.012C63.9818 45.7507 63.3659 45.0684 62.4541 45.0684ZM64.006 48.6189H65.2438C65.0627 49.7783 63.9637 50.6055 62.5085 50.6055C60.6426 50.6055 59.5135 49.3435 59.5135 47.3388C59.5135 45.3462 60.6608 44.0177 62.4541 44.0177C64.2173 44.0177 65.3163 45.2616 65.3163 47.1878V47.6347H60.8298V47.7132C60.8298 48.8182 61.494 49.5488 62.5387 49.5488C63.2814 49.5488 63.8309 49.1744 64.006 48.6189ZM66.0834 50.4847V44.1325H67.3273V45.1952H67.3575C67.7016 44.4706 68.3779 44.0238 69.3561 44.0238C70.757 44.0238 71.5601 44.9174 71.5601 46.3727V50.4847H70.2498V46.6263C70.2498 45.6722 69.803 45.1469 68.8972 45.1469C67.9794 45.1469 67.3876 45.799 67.3876 46.7833V50.4847H66.0834ZM72.9552 42.6289H74.2655V44.1325H75.4732V45.165H74.2655V48.6672C74.2655 49.2167 74.507 49.4643 75.0384 49.4643C75.1712 49.4643 75.3826 49.4522 75.4671 49.4341V50.4666C75.3222 50.5029 75.0324 50.527 74.7425 50.527C73.4564 50.527 72.9552 50.0379 72.9552 48.8121V45.165H72.0313V44.1325H72.9552V42.6289Z" fill="black"/>
<rect x="254.023" y="34.9924" width="21.9847" height="21.9847" rx="10.9924" fill="#F5F6F9"/>
<path d="M262.042 50.3893L264.501 46.5087V46.4658L262.059 42.6442H263.964L265.606 45.4353H265.649L267.308 42.6442H269.117L266.583 46.498V46.5356L269.084 50.3893H267.238L265.542 47.6788H265.499L263.792 50.3893H262.042Z" fill="#BBBBBB"/>
<rect x="27.9924" y="67.9694" width="248.015" height="38.4733" rx="8.24427" fill="#F9F7F4"/>
<path opacity="0.5" d="M36.3669 81.4656H35.4652V76.4337H33.6859V75.6568H38.1422V76.4337H36.3669V81.4656ZM38.6091 81.4656V77.2308H39.4786V81.4656H38.6091ZM39.0439 76.6109C38.7661 76.6109 38.5407 76.3895 38.5407 76.1157C38.5407 75.838 38.7661 75.6166 39.0439 75.6166C39.3257 75.6166 39.5511 75.838 39.5511 76.1157C39.5511 76.3895 39.3257 76.6109 39.0439 76.6109ZM40.6219 76.2284H41.4954V77.2308H42.3005V77.9192H41.4954V80.254C41.4954 80.6203 41.6564 80.7853 42.0107 80.7853C42.0992 80.7853 42.2401 80.7773 42.2965 80.7652V81.4536C42.1999 81.4777 42.0067 81.4938 41.8134 81.4938C40.956 81.4938 40.6219 81.1677 40.6219 80.3506V77.9192H40.006V77.2308H40.6219V76.2284ZM43.0493 81.4656V75.6568H43.9188V81.4656H43.0493ZM46.5837 77.8547C45.9758 77.8547 45.5491 78.3177 45.5048 78.9577H47.6223C47.6021 78.3096 47.1915 77.8547 46.5837 77.8547ZM47.6182 80.2218H48.4435C48.3227 80.9947 47.5901 81.5461 46.6199 81.5461C45.376 81.5461 44.6232 80.7048 44.6232 79.3683C44.6232 78.0399 45.3881 77.1543 46.5837 77.1543C47.7591 77.1543 48.4918 77.9836 48.4918 79.2677V79.5656H45.5008V79.6179C45.5008 80.3546 45.9436 80.8417 46.64 80.8417C47.1352 80.8417 47.5015 80.5921 47.6182 80.2218Z" fill="#7A7A7A"/>
<path d="M35.7537 98.2137H34.1327V90.4686H39.2049V91.8051H35.7537V93.8823H38.9043V95.1651H35.7537V98.2137ZM39.8385 98.2137V92.4599H41.4057V98.2137H39.8385ZM40.6221 91.8266C40.1498 91.8266 39.7848 91.467 39.7848 91.0161C39.7848 90.5599 40.1498 90.2056 40.6221 90.2056C41.0944 90.2056 41.4594 90.5599 41.4594 91.0161C41.4594 91.467 41.0944 91.8266 40.6221 91.8266ZM42.2325 98.2137V92.4599H43.7461V93.4958H43.7783C43.9823 92.7659 44.4707 92.3687 45.147 92.3687C45.3295 92.3687 45.4851 92.3955 45.5925 92.4277V93.8071C45.4637 93.7535 45.249 93.7159 45.0235 93.7159C44.2506 93.7159 43.7998 94.1882 43.7998 94.9987V98.2137H42.2325ZM45.9201 94.1506C45.9201 93.0557 46.8701 92.3365 48.3462 92.3365C49.79 92.3365 50.7293 93.0664 50.7507 94.1829H49.3069C49.2747 93.7213 48.9044 93.4368 48.3247 93.4368C47.7826 93.4368 47.4283 93.6837 47.4283 94.054C47.4283 94.3385 47.6752 94.5317 48.1798 94.6498L49.2801 94.886C50.4341 95.1436 50.901 95.5998 50.901 96.4586C50.901 97.5911 49.8598 98.3372 48.3408 98.3372C46.8057 98.3372 45.8611 97.5965 45.7752 96.4747H47.3049C47.38 96.9578 47.7611 97.2369 48.3837 97.2369C48.9795 97.2369 49.3391 97.0007 49.3391 96.625C49.3391 96.3352 49.1459 96.1741 48.6306 96.0507L47.5679 95.8145C46.4783 95.5676 45.9201 94.9987 45.9201 94.1506ZM51.8835 91.1342H53.4507V92.4599H54.5135V93.6407H53.4507V96.3942C53.4507 96.8343 53.6654 97.0437 54.127 97.0437C54.2666 97.0437 54.4115 97.0329 54.5081 97.0168V98.1708C54.3471 98.2084 54.0787 98.2352 53.762 98.2352C52.4095 98.2352 51.8835 97.7844 51.8835 96.6626V93.6407H51.073V92.4599H51.8835V91.1342ZM57.5304 91.1342H59.0976V92.4599H60.1604V93.6407H59.0976V96.3942C59.0976 96.8343 59.3123 97.0437 59.7739 97.0437C59.9135 97.0437 60.0584 97.0329 60.155 97.0168V98.1708C59.994 98.2084 59.7256 98.2352 59.4089 98.2352C58.0564 98.2352 57.5304 97.7844 57.5304 96.6626V93.6407H56.7199V92.4599H57.5304V91.1342ZM62.9677 97.1725C63.6494 97.1725 64.213 96.727 64.213 96.1044V95.6857L62.9999 95.7609C62.4149 95.8038 62.0821 96.0668 62.0821 96.4747C62.0821 96.9041 62.4364 97.1725 62.9677 97.1725ZM62.4525 98.305C61.3575 98.305 60.5256 97.5965 60.5256 96.5606C60.5256 95.514 61.3307 94.9074 62.7638 94.8216L64.213 94.7357V94.3546C64.213 93.8179 63.8372 93.5066 63.2468 93.5066C62.6618 93.5066 62.2914 93.7964 62.2163 94.2204H60.7832C60.8422 93.104 61.7923 92.3365 63.3166 92.3365C64.7926 92.3365 65.7534 93.0986 65.7534 94.258V98.2137H64.2398V97.3335H64.2076C63.8855 97.9454 63.1717 98.305 62.4525 98.305ZM66.9666 91.1342H68.5339V92.4599H69.5966V93.6407H68.5339V96.3942C68.5339 96.8343 68.7486 97.0437 69.2102 97.0437C69.3497 97.0437 69.4947 97.0329 69.5913 97.0168V98.1708C69.4302 98.2084 69.1619 98.2352 68.8452 98.2352C67.4926 98.2352 66.9666 97.7844 66.9666 96.6626V93.6407H66.1562V92.4599H66.9666V91.1342ZM70.6542 91.1342H72.2215V92.4599H73.2842V93.6407H72.2215V96.3942C72.2215 96.8343 72.4362 97.0437 72.8978 97.0437C73.0373 97.0437 73.1822 97.0329 73.2789 97.0168V98.1708C73.1178 98.2084 72.8495 98.2352 72.5328 98.2352C71.1802 98.2352 70.6542 97.7844 70.6542 96.6626V93.6407H69.8437V92.4599H70.6542V91.1342ZM76.478 98.3372C74.739 98.3372 73.628 97.2208 73.628 95.3315C73.628 93.469 74.7551 92.3365 76.478 92.3365C78.2009 92.3365 79.3281 93.4636 79.3281 95.3315C79.3281 97.2261 78.2171 98.3372 76.478 98.3372ZM76.478 97.1403C77.2456 97.1403 77.734 96.4908 77.734 95.3368C77.734 94.1936 77.2402 93.5334 76.478 93.5334C75.7159 93.5334 75.2167 94.1936 75.2167 95.3368C75.2167 96.4908 75.7051 97.1403 76.478 97.1403ZM82.5595 98.3372C80.8204 98.3372 79.7094 97.2208 79.7094 95.3315C79.7094 93.469 80.8365 92.3365 82.5595 92.3365C84.2824 92.3365 85.4095 93.4636 85.4095 95.3315C85.4095 97.2261 84.2985 98.3372 82.5595 98.3372ZM82.5595 97.1403C83.327 97.1403 83.8154 96.4908 83.8154 95.3368C83.8154 94.1936 83.3216 93.5334 82.5595 93.5334C81.7973 93.5334 81.2981 94.1936 81.2981 95.3368C81.2981 96.4908 81.7866 97.1403 82.5595 97.1403Z" fill="black"/>
<rect x="27.9924" y="111.939" width="121.26" height="38.7405" rx="8.24427" fill="#F9F7F4"/>
<path opacity="0.5" d="M34.024 119.626H36.073C37.8 119.626 38.8225 120.689 38.8225 122.521C38.8225 124.356 37.804 125.435 36.073 125.435H34.024V119.626ZM34.9258 120.403V124.654H35.9885C37.2203 124.654 37.9006 123.902 37.9006 122.529C37.9006 121.16 37.2163 120.403 35.9885 120.403H34.9258ZM41.0607 124.819C41.6685 124.819 42.1435 124.401 42.1435 123.849V123.515L41.1009 123.579C40.5816 123.616 40.2878 123.845 40.2878 124.207C40.2878 124.578 40.5937 124.819 41.0607 124.819ZM40.8191 125.508C39.9899 125.508 39.4102 124.992 39.4102 124.232C39.4102 123.491 39.9778 123.036 40.9842 122.98L42.1435 122.911V122.585C42.1435 122.114 41.8255 121.832 41.2941 121.832C40.7909 121.832 40.477 122.074 40.4005 122.452H39.5793C39.6276 121.687 40.2797 121.124 41.3263 121.124C42.3529 121.124 43.009 121.667 43.009 122.517V125.435H42.1757V124.739H42.1556C41.91 125.21 41.3746 125.508 40.8191 125.508ZM44.108 120.198H44.9815V121.2H45.7866V121.889H44.9815V124.224C44.9815 124.59 45.1425 124.755 45.4968 124.755C45.5853 124.755 45.7262 124.747 45.7826 124.735V125.423C45.686 125.447 45.4928 125.463 45.2995 125.463C44.4421 125.463 44.108 125.137 44.108 124.32V121.889H43.4921V121.2H44.108V120.198ZM48.1697 121.824C47.5619 121.824 47.1352 122.287 47.0909 122.927H49.2083C49.1882 122.279 48.7776 121.824 48.1697 121.824ZM49.2043 124.191H50.0295C49.9088 124.964 49.1761 125.516 48.206 125.516C46.9621 125.516 46.2093 124.674 46.2093 123.338C46.2093 122.01 46.9742 121.124 48.1697 121.124C49.3452 121.124 50.0778 121.953 50.0778 123.237V123.535H47.0869V123.588C47.0869 124.324 47.5297 124.811 48.2261 124.811C48.7212 124.811 49.0876 124.562 49.2043 124.191Z" fill="#7A7A7A"/>
<path d="M34.0254 136.709C34.0254 135.313 35.1472 134.293 36.6876 134.293C38.1636 134.293 39.2639 135.233 39.2639 136.462C39.2639 137.363 38.7809 138.034 37.6484 139.194L35.7107 141.142V141.169H39.3874V142.183H34.0898V141.368L36.8862 138.517C37.8308 137.535 38.0777 137.127 38.0777 136.521C38.0777 135.834 37.4551 135.286 36.65 135.286C35.802 135.286 35.1633 135.898 35.1633 136.703V136.719H34.0254V136.709ZM43.0589 142.328C41.2018 142.328 40.1015 140.772 40.1015 138.303C40.1015 135.85 41.2125 134.293 43.0589 134.293C44.9106 134.293 46.0056 135.844 46.0056 138.297C46.0056 140.766 44.916 142.328 43.0589 142.328ZM43.0589 141.319C44.1646 141.319 44.7925 140.176 44.7925 138.303C44.7925 136.456 44.1538 135.302 43.0589 135.302C41.9639 135.302 41.3198 136.462 41.3198 138.303C41.3198 140.171 41.9532 141.319 43.0589 141.319ZM47.4711 142.242C47.0792 142.242 46.7679 141.931 46.7679 141.539C46.7679 141.147 47.0792 140.836 47.4711 140.836C47.8629 140.836 48.1742 141.147 48.1742 141.539C48.1742 141.931 47.8629 142.242 47.4711 142.242ZM52.055 142.328C50.1979 142.328 49.0976 140.772 49.0976 138.303C49.0976 135.85 50.2086 134.293 52.055 134.293C53.9067 134.293 55.0017 135.844 55.0017 138.297C55.0017 140.766 53.9121 142.328 52.055 142.328ZM52.055 141.319C53.1607 141.319 53.7887 140.176 53.7887 138.303C53.7887 136.456 53.15 135.302 52.055 135.302C50.9601 135.302 50.316 136.462 50.316 138.303C50.316 140.171 50.9493 141.319 52.055 141.319ZM58.6141 142.328C57.0683 142.328 55.9358 141.384 55.8661 140.031H57.0147C57.1005 140.799 57.7607 141.325 58.6249 141.325C59.6017 141.325 60.278 140.643 60.278 139.671C60.278 138.7 59.6017 138.002 58.6356 138.002C57.9647 138.002 57.385 138.308 57.0844 138.818H55.9841L56.3921 134.438H61.0026V135.453H57.3582L57.1435 137.83H57.1703C57.5085 137.342 58.1418 137.047 58.8986 137.047C60.3854 137.047 61.4535 138.136 61.4535 139.639C61.4535 141.228 60.2834 142.328 58.6141 142.328Z" fill="black"/>
<path opacity="0.2" d="M133.139 128.932C131.953 128.932 131.32 128.31 131.32 127.134V120.613C131.32 119.437 131.953 118.809 133.139 118.809H140.562C141.754 118.809 142.382 119.437 142.382 120.613V127.134C142.382 128.31 141.754 128.932 140.562 128.932H133.139ZM133.177 127.741H140.519C140.949 127.741 141.185 127.526 141.185 127.07V122.196C141.185 121.745 140.949 121.531 140.519 121.531H133.177C132.747 121.531 132.517 121.745 132.517 122.196V127.07C132.517 127.526 132.747 127.741 133.177 127.741ZM135.828 123.339C135.635 123.339 135.571 123.28 135.571 123.087V122.77C135.571 122.577 135.635 122.518 135.828 122.518H136.145C136.338 122.518 136.402 122.577 136.402 122.77V123.087C136.402 123.28 136.338 123.339 136.145 123.339H135.828ZM137.562 123.339C137.369 123.339 137.304 123.28 137.304 123.087V122.77C137.304 122.577 137.369 122.518 137.562 122.518H137.879C138.072 122.518 138.136 122.577 138.136 122.77V123.087C138.136 123.28 138.072 123.339 137.879 123.339H137.562ZM139.295 123.339C139.102 123.339 139.038 123.28 139.038 123.087V122.77C139.038 122.577 139.102 122.518 139.295 122.518H139.612C139.805 122.518 139.875 122.577 139.875 122.77V123.087C139.875 123.28 139.805 123.339 139.612 123.339H139.295ZM134.095 125.046C133.901 125.046 133.832 124.987 133.832 124.794V124.477C133.832 124.284 133.901 124.225 134.095 124.225H134.411C134.604 124.225 134.669 124.284 134.669 124.477V124.794C134.669 124.987 134.604 125.046 134.411 125.046H134.095ZM135.828 125.046C135.635 125.046 135.571 124.987 135.571 124.794V124.477C135.571 124.284 135.635 124.225 135.828 124.225H136.145C136.338 124.225 136.402 124.284 136.402 124.477V124.794C136.402 124.987 136.338 125.046 136.145 125.046H135.828ZM137.562 125.046C137.369 125.046 137.304 124.987 137.304 124.794V124.477C137.304 124.284 137.369 124.225 137.562 124.225H137.879C138.072 124.225 138.136 124.284 138.136 124.477V124.794C138.136 124.987 138.072 125.046 137.879 125.046H137.562ZM139.295 125.046C139.102 125.046 139.038 124.987 139.038 124.794V124.477C139.038 124.284 139.102 124.225 139.295 124.225H139.612C139.805 124.225 139.875 124.284 139.875 124.477V124.794C139.875 124.987 139.805 125.046 139.612 125.046H139.295ZM134.095 126.753C133.901 126.753 133.832 126.694 133.832 126.501V126.184C133.832 125.991 133.901 125.932 134.095 125.932H134.411C134.604 125.932 134.669 125.991 134.669 126.184V126.501C134.669 126.694 134.604 126.753 134.411 126.753H134.095ZM135.828 126.753C135.635 126.753 135.571 126.694 135.571 126.501V126.184C135.571 125.991 135.635 125.932 135.828 125.932H136.145C136.338 125.932 136.402 125.991 136.402 126.184V126.501C136.402 126.694 136.338 126.753 136.145 126.753H135.828ZM137.562 126.753C137.369 126.753 137.304 126.694 137.304 126.501V126.184C137.304 125.991 137.369 125.932 137.562 125.932H137.879C138.072 125.932 138.136 125.991 138.136 126.184V126.501C138.136 126.694 138.072 126.753 137.879 126.753H137.562Z" fill="black"/>
<rect x="154.748" y="111.939" width="121.26" height="38.7405" rx="8.24427" fill="#F9F7F4"/>
<path opacity="0.5" d="M163.123 125.435H162.221V120.403H160.442V119.626H164.898V120.403H163.123V125.435ZM165.365 125.435V121.2H166.234V125.435H165.365ZM165.799 120.58C165.522 120.58 165.296 120.359 165.296 120.085C165.296 119.807 165.522 119.586 165.799 119.586C166.081 119.586 166.307 119.807 166.307 120.085C166.307 120.359 166.081 120.58 165.799 120.58ZM167.124 125.435V121.2H167.953V121.913H167.973C168.162 121.442 168.605 121.128 169.177 121.128C169.765 121.128 170.191 121.43 170.36 121.957H170.381C170.598 121.442 171.097 121.128 171.701 121.128C172.538 121.128 173.086 121.683 173.086 122.525V125.435H172.212V122.734C172.212 122.187 171.918 121.873 171.403 121.873C170.888 121.873 170.529 122.255 170.529 122.79V125.435H169.676V122.67C169.676 122.182 169.366 121.873 168.875 121.873C168.36 121.873 167.993 122.275 167.993 122.819V125.435H167.124ZM175.698 121.824C175.09 121.824 174.664 122.287 174.619 122.927H176.737C176.717 122.279 176.306 121.824 175.698 121.824ZM176.733 124.191H177.558C177.437 124.964 176.705 125.516 175.734 125.516C174.491 125.516 173.738 124.674 173.738 123.338C173.738 122.009 174.503 121.124 175.698 121.124C176.874 121.124 177.606 121.953 177.606 123.237V123.535H174.615V123.587C174.615 124.324 175.058 124.811 175.755 124.811C176.25 124.811 176.616 124.562 176.733 124.191Z" fill="#7A7A7A"/>
<path d="M163.669 142.328C161.812 142.328 160.711 140.772 160.711 138.303C160.711 135.85 161.822 134.293 163.669 134.293C165.52 134.293 166.615 135.844 166.615 138.297C166.615 140.766 165.526 142.328 163.669 142.328ZM163.669 141.319C164.774 141.319 165.402 140.176 165.402 138.303C165.402 136.456 164.764 135.302 163.669 135.302C162.574 135.302 161.93 136.462 161.93 138.303C161.93 140.17 162.563 141.319 163.669 141.319ZM170.271 142.328C168.542 142.328 167.34 141.4 167.34 140.09C167.34 139.102 168.038 138.313 169.063 138.099V138.072C168.204 137.836 167.651 137.165 167.651 136.333C167.651 135.157 168.752 134.293 170.271 134.293C171.795 134.293 172.885 135.152 172.885 136.338C172.885 137.159 172.337 137.825 171.478 138.072V138.099C172.509 138.313 173.201 139.108 173.201 140.09C173.201 141.405 171.988 142.328 170.271 142.328ZM170.271 141.362C171.258 141.362 171.956 140.793 171.956 140.004C171.956 139.204 171.258 138.635 170.271 138.635C169.283 138.635 168.58 139.21 168.58 140.004C168.58 140.793 169.283 141.362 170.271 141.362ZM170.271 137.669C171.103 137.669 171.698 137.165 171.698 136.462C171.698 135.753 171.108 135.249 170.271 135.249C169.428 135.249 168.843 135.753 168.843 136.462C168.843 137.165 169.428 137.669 170.271 137.669ZM174.892 140.986C174.5 140.986 174.189 140.675 174.189 140.283C174.189 139.891 174.5 139.58 174.892 139.58C175.284 139.58 175.595 139.891 175.595 140.283C175.595 140.675 175.284 140.986 174.892 140.986ZM174.892 137.073C174.5 137.073 174.189 136.768 174.189 136.37C174.189 135.979 174.5 135.667 174.892 135.667C175.284 135.667 175.595 135.979 175.595 136.37C175.595 136.768 175.284 137.073 174.892 137.073ZM178.403 138.678V137.734H179.337C180.174 137.734 180.748 137.208 180.748 136.478C180.748 135.758 180.254 135.281 179.337 135.281C178.499 135.281 177.941 135.764 177.871 136.526H176.739C176.83 135.168 177.855 134.293 179.39 134.293C180.856 134.293 181.924 135.125 181.924 136.317C181.924 137.283 181.29 137.975 180.33 138.147V138.168C181.494 138.249 182.246 138.963 182.246 140.047C182.246 141.4 181.017 142.328 179.401 142.328C177.732 142.328 176.658 141.41 176.583 140.074H177.737C177.812 140.815 178.424 141.324 179.401 141.324C180.346 141.324 181.022 140.788 181.022 140.031C181.022 139.194 180.389 138.678 179.369 138.678H178.403ZM185.976 142.328C184.119 142.328 183.019 140.772 183.019 138.303C183.019 135.85 184.13 134.293 185.976 134.293C187.828 134.293 188.923 135.844 188.923 138.297C188.923 140.766 187.833 142.328 185.976 142.328ZM185.976 141.319C187.082 141.319 187.71 140.176 187.71 138.303C187.71 136.456 187.071 135.302 185.976 135.302C184.881 135.302 184.237 136.462 184.237 138.303C184.237 140.17 184.871 141.319 185.976 141.319Z" fill="black"/>
<rect x="27.9924" y="161.672" width="248.015" height="158.057" rx="14.4275" fill="#F9F7F4"/>
<path opacity="0.5" d="M39.2625 173.55H40.1521C40.2166 174.125 40.7761 174.504 41.5409 174.504C42.2736 174.504 42.8009 174.125 42.8009 173.606C42.8009 173.155 42.4829 172.885 41.7301 172.7L40.9774 172.519C39.9106 172.262 39.4155 171.762 39.4155 170.953C39.4155 169.951 40.289 169.263 41.5289 169.263C42.7567 169.263 43.598 169.951 43.6262 170.953H42.7486C42.6963 170.374 42.2172 170.023 41.5168 170.023C40.8164 170.023 40.3373 170.378 40.3373 170.893C40.3373 171.303 40.6433 171.545 41.392 171.73L42.0321 171.887C43.2236 172.169 43.7188 172.648 43.7188 173.497C43.7188 174.584 42.8533 175.265 41.4765 175.265C40.1884 175.265 39.3189 174.6 39.2625 173.55ZM44.6768 169.931H45.5504V170.933H46.3555V171.621H45.5504V173.956C45.5504 174.323 45.7114 174.488 46.0656 174.488C46.1542 174.488 46.2951 174.48 46.3515 174.468V175.156C46.2548 175.18 46.0616 175.196 45.8684 175.196C45.011 175.196 44.6768 174.87 44.6768 174.053V171.621H44.0609V170.933H44.6768V169.931ZM48.7386 171.557C48.1307 171.557 47.704 172.02 47.6597 172.66H49.7772C49.757 172.012 49.3464 171.557 48.7386 171.557ZM49.7731 173.924H50.5984C50.4776 174.697 49.745 175.248 48.7748 175.248C47.5309 175.248 46.7782 174.407 46.7782 173.071C46.7782 171.742 47.543 170.857 48.7386 170.857C49.914 170.857 50.6467 171.686 50.6467 172.97V173.268H47.6557V173.32C47.6557 174.057 48.0985 174.544 48.7949 174.544C49.2901 174.544 49.6564 174.294 49.7731 173.924ZM53.529 170.865C54.6038 170.865 55.3123 171.71 55.3123 173.051C55.3123 174.391 54.6078 175.24 53.5451 175.24C52.9372 175.24 52.4541 174.943 52.2126 174.472H52.1925V176.569H51.323V170.933H52.1643V171.662H52.1804C52.43 171.175 52.9171 170.865 53.529 170.865ZM53.2995 174.504C53.9879 174.504 54.4186 173.94 54.4186 173.051C54.4186 172.165 53.9879 171.597 53.2995 171.597C52.6353 171.597 52.1885 172.177 52.1885 173.051C52.1885 173.932 52.6313 174.504 53.2995 174.504ZM55.908 172.133C55.908 171.376 56.5763 170.857 57.5666 170.857C58.5085 170.857 59.1687 171.384 59.1969 172.137H58.3797C58.3395 171.754 58.0295 171.517 57.5424 171.517C57.0714 171.517 56.7574 171.746 56.7574 172.08C56.7574 172.342 56.9668 172.519 57.4055 172.628L58.1181 172.793C58.9715 172.998 59.2935 173.32 59.2935 173.944C59.2935 174.717 58.5729 175.248 57.5344 175.248C56.532 175.248 55.8678 174.729 55.7994 173.952H56.6608C56.7293 174.359 57.0432 174.584 57.5746 174.584C58.0979 174.584 58.42 174.367 58.42 174.025C58.42 173.755 58.259 173.606 57.8161 173.493L57.0593 173.308C56.2945 173.123 55.908 172.724 55.908 172.133ZM61.898 169.931H62.7716V170.933H63.5767V171.621H62.7716V173.956C62.7716 174.323 62.9326 174.488 63.2868 174.488C63.3754 174.488 63.5163 174.48 63.5726 174.468V175.156C63.476 175.18 63.2828 175.196 63.0896 175.196C62.2321 175.196 61.898 174.87 61.898 174.053V171.621H61.2821V170.933H61.898V169.931ZM66.0081 175.248C64.7964 175.248 63.9993 174.415 63.9993 173.051C63.9993 171.69 64.8004 170.857 66.0081 170.857C67.2157 170.857 68.0168 171.69 68.0168 173.051C68.0168 174.415 67.2198 175.248 66.0081 175.248ZM66.0081 174.532C66.6924 174.532 67.1312 173.993 67.1312 173.051C67.1312 172.113 66.6884 171.573 66.0081 171.573C65.3278 171.573 64.885 172.113 64.885 173.051C64.885 173.993 65.3278 174.532 66.0081 174.532ZM73.9987 172.39H73.1695C73.0809 171.939 72.7428 171.581 72.1752 171.581C71.5029 171.581 71.0601 172.141 71.0601 173.051C71.0601 173.98 71.5069 174.52 72.1832 174.52C72.7186 174.52 73.0689 174.226 73.1695 173.735H74.0068C73.9142 174.637 73.1936 175.248 72.1752 175.248C70.9635 175.248 70.1745 174.419 70.1745 173.051C70.1745 171.706 70.9635 170.857 72.1671 170.857C73.2581 170.857 73.9223 171.557 73.9987 172.39ZM76.4422 175.248C75.2306 175.248 74.4335 174.415 74.4335 173.051C74.4335 171.69 75.2346 170.857 76.4422 170.857C77.6499 170.857 78.451 171.69 78.451 173.051C78.451 174.415 77.6539 175.248 76.4422 175.248ZM76.4422 174.532C77.1266 174.532 77.5654 173.993 77.5654 173.051C77.5654 172.113 77.1226 171.573 76.4422 171.573C75.7619 171.573 75.3191 172.113 75.3191 173.051C75.3191 173.993 75.7619 174.532 76.4422 174.532ZM79.1232 175.168V170.933H79.9525V171.646H79.9726C80.1618 171.175 80.6046 170.861 81.1763 170.861C81.764 170.861 82.1907 171.163 82.3598 171.69H82.3799C82.5973 171.175 83.0964 170.861 83.7003 170.861C84.5376 170.861 85.085 171.416 85.085 172.258V175.168H84.2115V172.467C84.2115 171.919 83.9176 171.605 83.4024 171.605C82.8871 171.605 82.5288 171.988 82.5288 172.523V175.168H81.6754V172.402C81.6754 171.915 81.3655 171.605 80.8743 171.605C80.3591 171.605 79.9928 172.008 79.9928 172.551V175.168H79.1232ZM88.1324 170.865C89.2072 170.865 89.9157 171.71 89.9157 173.051C89.9157 174.391 89.2112 175.24 88.1485 175.24C87.5406 175.24 87.0576 174.943 86.816 174.472H86.7959V176.569H85.9264V170.933H86.7677V171.662H86.7838C87.0334 171.175 87.5205 170.865 88.1324 170.865ZM87.9029 174.504C88.5913 174.504 89.022 173.94 89.022 173.051C89.022 172.165 88.5913 171.597 87.9029 171.597C87.2387 171.597 86.7919 172.177 86.7919 173.051C86.7919 173.932 87.2347 174.504 87.9029 174.504ZM90.6201 175.168V169.359H91.4897V175.168H90.6201ZM94.1545 171.557C93.5467 171.557 93.12 172.02 93.0757 172.66H95.1931C95.173 172.012 94.7624 171.557 94.1545 171.557ZM95.1891 173.924H96.0143C95.8936 174.697 95.1609 175.248 94.1908 175.248C92.9469 175.248 92.1941 174.407 92.1941 173.071C92.1941 171.742 92.959 170.857 94.1545 170.857C95.33 170.857 96.0626 171.686 96.0626 172.97V173.268H93.0717V173.32C93.0717 174.057 93.5145 174.544 94.2109 174.544C94.706 174.544 95.0724 174.294 95.1891 173.924ZM96.9925 169.931H97.8661V170.933H98.6712V171.621H97.8661V173.956C97.8661 174.323 98.0271 174.488 98.3813 174.488C98.4699 174.488 98.6108 174.48 98.6672 174.468V175.156C98.5705 175.18 98.3773 175.196 98.1841 175.196C97.3267 175.196 96.9925 174.87 96.9925 174.053V171.621H96.3766V170.933H96.9925V169.931ZM101.054 171.557C100.446 171.557 100.02 172.02 99.9755 172.66H102.093C102.073 172.012 101.662 171.557 101.054 171.557ZM102.089 173.924H102.914C102.793 174.697 102.061 175.248 101.091 175.248C99.8466 175.248 99.0939 174.407 99.0939 173.071C99.0939 171.742 99.8587 170.857 101.054 170.857C102.23 170.857 102.962 171.686 102.962 172.97V173.268H99.9714V173.32C99.9714 174.057 100.414 174.544 101.111 174.544C101.606 174.544 101.972 174.294 102.089 173.924Z" fill="#7A7A7A"/>
<rect width="239.084" height="28.52" transform="translate(33.4886 183.664)" fill="white"/>
<path d="M42.7334 201.537C40.8314 201.537 39.6291 200.194 39.6291 198.033C39.6291 195.887 40.8408 194.534 42.7334 194.534C44.2692 194.534 45.4292 195.478 45.6076 196.892H44.565C44.3772 196.023 43.6539 195.455 42.7334 195.455C41.503 195.455 40.7046 196.465 40.7046 198.033C40.7046 199.616 41.4936 200.616 42.7381 200.616C43.6821 200.616 44.3537 200.133 44.565 199.315H45.6123C45.354 200.715 44.2926 201.537 42.7334 201.537ZM46.2841 201.424V194.647H47.2892V197.31H47.3126C47.585 196.732 48.1251 196.399 48.8766 196.399C49.9614 196.399 50.6095 197.122 50.6095 198.24V201.424H49.5904V198.437C49.5904 197.709 49.2241 197.272 48.5102 197.272C47.7588 197.272 47.2986 197.789 47.2986 198.569V201.424H46.2841ZM53.5215 201.518C52.1079 201.518 51.178 200.546 51.178 198.954C51.178 197.366 52.1126 196.394 53.5215 196.394C54.9305 196.394 55.8651 197.366 55.8651 198.954C55.8651 200.546 54.9352 201.518 53.5215 201.518ZM53.5215 200.682C54.3199 200.682 54.8318 200.053 54.8318 198.954C54.8318 197.86 54.3152 197.23 53.5215 197.23C52.7278 197.23 52.2112 197.86 52.2112 198.954C52.2112 200.053 52.7278 200.682 53.5215 200.682ZM58.5798 201.518C57.1662 201.518 56.2363 200.546 56.2363 198.954C56.2363 197.366 57.1709 196.394 58.5798 196.394C59.9887 196.394 60.9233 197.366 60.9233 198.954C60.9233 200.546 59.9934 201.518 58.5798 201.518ZM58.5798 200.682C59.3782 200.682 59.8901 200.053 59.8901 198.954C59.8901 197.86 59.3735 197.23 58.5798 197.23C57.7861 197.23 57.2695 197.86 57.2695 198.954C57.2695 200.053 57.7861 200.682 58.5798 200.682ZM61.426 197.883C61.426 197 62.2056 196.394 63.361 196.394C64.4599 196.394 65.2301 197.009 65.263 197.888H64.3096C64.2627 197.442 63.901 197.164 63.3328 197.164C62.7833 197.164 62.417 197.432 62.417 197.822C62.417 198.127 62.6612 198.334 63.1731 198.461L64.0044 198.653C65 198.893 65.3757 199.268 65.3757 199.996C65.3757 200.898 64.5351 201.518 63.3234 201.518C62.154 201.518 61.3791 200.912 61.2992 200.006H62.3043C62.3841 200.48 62.7504 200.743 63.3704 200.743C63.9809 200.743 64.3566 200.49 64.3566 200.09C64.3566 199.776 64.1687 199.602 63.6521 199.47L62.7692 199.254C61.8769 199.038 61.426 198.573 61.426 197.883ZM68.0388 197.211C67.3296 197.211 66.8318 197.752 66.7802 198.498H69.2505C69.227 197.742 68.748 197.211 68.0388 197.211ZM69.2458 199.973H70.2086C70.0677 200.875 69.2129 201.518 68.0811 201.518C66.6299 201.518 65.7516 200.537 65.7516 198.977C65.7516 197.427 66.644 196.394 68.0388 196.394C69.4102 196.394 70.2649 197.362 70.2649 198.86V199.207H66.7755V199.268C66.7755 200.128 67.2921 200.696 68.1046 200.696C68.6822 200.696 69.1096 200.405 69.2458 199.973ZM72.6558 201.424V196.483H73.6702V201.424H72.6558ZM73.163 195.76C72.8389 195.76 72.5759 195.502 72.5759 195.183C72.5759 194.859 72.8389 194.6 73.163 194.6C73.4918 194.6 73.7548 194.859 73.7548 195.183C73.7548 195.502 73.4918 195.76 73.163 195.76ZM76.3709 201.509C75.1216 201.509 74.295 200.513 74.295 198.954C74.295 197.395 75.1216 196.404 76.3615 196.404C77.0706 196.404 77.6342 196.761 77.9113 197.305H77.9301V194.647H78.9492V201.424H77.963V200.583H77.9442C77.653 201.147 77.0894 201.509 76.3709 201.509ZM76.6386 197.258C75.8355 197.258 75.3329 197.916 75.3329 198.954C75.3329 199.996 75.8355 200.649 76.6386 200.649C77.4182 200.649 77.9395 199.987 77.9395 198.954C77.9395 197.93 77.4182 197.258 76.6386 197.258ZM81.8659 197.211C81.1567 197.211 80.6589 197.752 80.6072 198.498H83.0776C83.0541 197.742 82.5751 197.211 81.8659 197.211ZM83.0729 199.973H84.0356C83.8948 200.875 83.04 201.518 81.9082 201.518C80.457 201.518 79.5787 200.537 79.5787 198.977C79.5787 197.427 80.471 196.394 81.8659 196.394C83.2373 196.394 84.092 197.362 84.092 198.86V199.207H80.6025V199.268C80.6025 200.128 81.1192 200.696 81.9316 200.696C82.5093 200.696 82.9367 200.405 83.0729 199.973ZM86.4169 200.706C87.1261 200.706 87.6803 200.217 87.6803 199.574V199.184L86.4639 199.259C85.8581 199.301 85.5152 199.569 85.5152 199.992C85.5152 200.424 85.8721 200.706 86.4169 200.706ZM86.1351 201.509C85.1677 201.509 84.4914 200.908 84.4914 200.02C84.4914 199.156 85.1536 198.625 86.3277 198.559L87.6803 198.479V198.099C87.6803 197.55 87.3093 197.221 86.6893 197.221C86.1023 197.221 85.7359 197.503 85.6467 197.944H84.6886C84.745 197.052 85.5058 196.394 86.7269 196.394C87.9245 196.394 88.69 197.028 88.69 198.019V201.424H87.7178V200.612H87.6944C87.4079 201.161 86.7833 201.509 86.1351 201.509ZM92.9735 200.706C93.6827 200.706 94.2369 200.217 94.2369 199.574V199.184L93.0205 199.259C92.4147 199.301 92.0718 199.569 92.0718 199.992C92.0718 200.424 92.4288 200.706 92.9735 200.706ZM92.6918 201.509C91.7243 201.509 91.048 200.908 91.048 200.02C91.048 199.156 91.7102 198.625 92.8843 198.559L94.2369 198.479V198.099C94.2369 197.55 93.8659 197.221 93.2459 197.221C92.6589 197.221 92.2926 197.503 92.2033 197.944H91.2453C91.3016 197.052 92.0624 196.394 93.2835 196.394C94.4811 196.394 95.2466 197.028 95.2466 198.019V201.424H94.2745V200.612H94.251C93.9645 201.161 93.3399 201.509 92.6918 201.509ZM96.0405 201.424V196.483H97.008V197.31H97.0315C97.2992 196.746 97.8252 196.399 98.586 196.399C99.6756 196.399 100.3 197.094 100.3 198.226V201.424H99.2811V198.423C99.2811 197.681 98.9335 197.272 98.2291 197.272C97.5152 197.272 97.0549 197.78 97.0549 198.545V201.424H96.0405ZM102.944 201.509C101.695 201.509 100.869 200.513 100.869 198.954C100.869 197.395 101.695 196.404 102.935 196.404C103.644 196.404 104.208 196.761 104.485 197.305H104.504V194.647H105.523V201.424H104.537V200.583H104.518C104.227 201.147 103.663 201.509 102.944 201.509ZM103.212 197.258C102.409 197.258 101.907 197.916 101.907 198.954C101.907 199.996 102.409 200.649 103.212 200.649C103.992 200.649 104.513 199.987 104.513 198.954C104.513 197.93 103.992 197.258 103.212 197.258ZM108.045 197.883C108.045 197 108.825 196.394 109.98 196.394C111.079 196.394 111.849 197.009 111.882 197.888H110.929C110.882 197.442 110.52 197.164 109.952 197.164C109.402 197.164 109.036 197.432 109.036 197.822C109.036 198.127 109.28 198.334 109.792 198.461L110.624 198.653C111.619 198.893 111.995 199.268 111.995 199.996C111.995 200.898 111.154 201.518 109.943 201.518C108.773 201.518 107.998 200.912 107.918 200.006H108.923C109.003 200.48 109.37 200.743 109.99 200.743C110.6 200.743 110.976 200.49 110.976 200.09C110.976 199.776 110.788 199.602 110.271 199.47L109.388 199.254C108.496 199.038 108.045 198.573 108.045 197.883ZM112.887 195.314H113.907V196.483H114.846V197.287H113.907V200.011C113.907 200.438 114.094 200.63 114.508 200.63C114.611 200.63 114.775 200.621 114.841 200.607V201.41C114.728 201.438 114.503 201.457 114.278 201.457C113.277 201.457 112.887 201.077 112.887 200.123V197.287H112.169V196.483H112.887V195.314ZM115.978 203.265C115.898 203.265 115.64 203.256 115.565 203.242V202.42C115.64 202.439 115.809 202.439 115.893 202.439C116.368 202.439 116.617 202.241 116.772 201.734C116.772 201.725 116.861 201.434 116.861 201.429L115.076 196.483H116.175L117.429 200.504H117.443L118.697 196.483H119.768L117.913 201.682C117.49 202.88 117.006 203.265 115.978 203.265ZM120.21 201.424V194.647H121.224V201.424H120.21ZM124.141 197.211C123.431 197.211 122.934 197.752 122.882 198.498H125.352C125.329 197.742 124.85 197.211 124.141 197.211ZM125.348 199.973H126.31C126.17 200.875 125.315 201.518 124.183 201.518C122.732 201.518 121.853 200.537 121.853 198.977C121.853 197.427 122.746 196.394 124.141 196.394C125.512 196.394 126.367 197.362 126.367 198.86V199.207H122.877V199.268C122.877 200.128 123.394 200.696 124.206 200.696C124.784 200.696 125.211 200.405 125.348 199.973Z" fill="black"/>
<g opacity="0.2">
<path d="M264.522 194.489H262.232V193.917C262.232 193.461 262.051 193.024 261.729 192.702C261.407 192.38 260.97 192.199 260.515 192.199H259.37C258.914 192.199 258.477 192.38 258.155 192.702C257.833 193.024 257.652 193.461 257.652 193.917V194.489H255.362C255.21 194.489 255.065 194.549 254.957 194.657C254.85 194.764 254.79 194.91 254.79 195.062C254.79 195.213 254.85 195.359 254.957 195.466C255.065 195.574 255.21 195.634 255.362 195.634H255.935V201.932C255.935 202.387 256.116 202.824 256.438 203.146C256.76 203.468 257.197 203.649 257.652 203.649H262.232C262.688 203.649 263.125 203.468 263.447 203.146C263.769 202.824 263.95 202.387 263.95 201.932V195.634H264.522C264.674 195.634 264.82 195.574 264.927 195.466C265.035 195.359 265.095 195.213 265.095 195.062C265.095 194.91 265.035 194.764 264.927 194.657C264.82 194.549 264.674 194.489 264.522 194.489ZM258.797 193.917C258.797 193.765 258.858 193.619 258.965 193.512C259.072 193.404 259.218 193.344 259.37 193.344H260.515C260.667 193.344 260.812 193.404 260.92 193.512C261.027 193.619 261.087 193.765 261.087 193.917V194.489H258.797V193.917ZM262.805 201.932C262.805 202.084 262.745 202.229 262.637 202.337C262.53 202.444 262.384 202.504 262.232 202.504H257.652C257.5 202.504 257.355 202.444 257.247 202.337C257.14 202.229 257.08 202.084 257.08 201.932V195.634H262.805V201.932Z" fill="black"/>
</g>
<rect width="239.084" height="28.52" transform="translate(33.4886 217.68)" fill="white"/>
<path d="M42.7334 235.553C40.8314 235.553 39.6291 234.21 39.6291 232.049C39.6291 229.903 40.8408 228.551 42.7334 228.551C44.2692 228.551 45.4292 229.495 45.6076 230.908H44.565C44.3772 230.039 43.6539 229.471 42.7334 229.471C41.503 229.471 40.7046 230.481 40.7046 232.049C40.7046 233.632 41.4936 234.633 42.7381 234.633C43.6821 234.633 44.3537 234.149 44.565 233.332H45.6123C45.354 234.731 44.2926 235.553 42.7334 235.553ZM46.2841 235.44V228.663H47.2892V231.326H47.3126C47.585 230.749 48.1251 230.415 48.8766 230.415C49.9614 230.415 50.6095 231.138 50.6095 232.256V235.44H49.5904V232.453C49.5904 231.725 49.2241 231.289 48.5102 231.289C47.7588 231.289 47.2986 231.805 47.2986 232.585V235.44H46.2841ZM53.5215 235.534C52.1079 235.534 51.178 234.562 51.178 232.97C51.178 231.383 52.1126 230.41 53.5215 230.41C54.9305 230.41 55.8651 231.383 55.8651 232.97C55.8651 234.562 54.9352 235.534 53.5215 235.534ZM53.5215 234.698C54.3199 234.698 54.8318 234.069 54.8318 232.97C54.8318 231.876 54.3152 231.246 53.5215 231.246C52.7278 231.246 52.2112 231.876 52.2112 232.97C52.2112 234.069 52.7278 234.698 53.5215 234.698ZM58.5798 235.534C57.1662 235.534 56.2363 234.562 56.2363 232.97C56.2363 231.383 57.1709 230.41 58.5798 230.41C59.9887 230.41 60.9233 231.383 60.9233 232.97C60.9233 234.562 59.9934 235.534 58.5798 235.534ZM58.5798 234.698C59.3782 234.698 59.8901 234.069 59.8901 232.97C59.8901 231.876 59.3735 231.246 58.5798 231.246C57.7861 231.246 57.2695 231.876 57.2695 232.97C57.2695 234.069 57.7861 234.698 58.5798 234.698ZM61.426 231.899C61.426 231.016 62.2056 230.41 63.361 230.41C64.4599 230.41 65.2301 231.026 65.263 231.904H64.3096C64.2627 231.458 63.901 231.181 63.3328 231.181C62.7833 231.181 62.417 231.448 62.417 231.838C62.417 232.143 62.6612 232.35 63.1731 232.477L64.0044 232.669C65 232.909 65.3757 233.285 65.3757 234.013C65.3757 234.914 64.5351 235.534 63.3234 235.534C62.154 235.534 61.3791 234.928 61.2992 234.022H62.3043C62.3841 234.496 62.7504 234.759 63.3704 234.759C63.9809 234.759 64.3566 234.506 64.3566 234.107C64.3566 233.792 64.1687 233.618 63.6521 233.487L62.7692 233.271C61.8769 233.055 61.426 232.59 61.426 231.899ZM68.0388 231.228C67.3296 231.228 66.8318 231.768 66.7802 232.514H69.2505C69.227 231.758 68.748 231.228 68.0388 231.228ZM69.2458 233.989H70.2086C70.0677 234.891 69.2129 235.534 68.0811 235.534C66.6299 235.534 65.7516 234.553 65.7516 232.993C65.7516 231.444 66.644 230.41 68.0388 230.41C69.4102 230.41 70.2649 231.378 70.2649 232.876V233.224H66.7755V233.285C66.7755 234.144 67.2921 234.712 68.1046 234.712C68.6822 234.712 69.1096 234.421 69.2458 233.989ZM72.9188 229.33H73.9379V230.5H74.8772V231.303H73.9379V234.027C73.9379 234.454 74.1258 234.647 74.5391 234.647C74.6424 234.647 74.8068 234.637 74.8725 234.623V235.426C74.7598 235.454 74.5344 235.473 74.3089 235.473C73.3086 235.473 72.9188 235.093 72.9188 234.139V231.303H72.2002V230.5H72.9188V229.33ZM77.174 234.722C77.8831 234.722 78.4373 234.233 78.4373 233.59V233.2L77.2209 233.275C76.6151 233.318 76.2722 233.585 76.2722 234.008C76.2722 234.44 76.6292 234.722 77.174 234.722ZM76.8922 235.525C75.9247 235.525 75.2484 234.924 75.2484 234.036C75.2484 233.172 75.9106 232.641 77.0847 232.575L78.4373 232.496V232.115C78.4373 231.566 78.0663 231.237 77.4463 231.237C76.8593 231.237 76.493 231.519 76.4037 231.96H75.4457C75.502 231.068 76.2628 230.41 77.4839 230.41C78.6815 230.41 79.447 231.044 79.447 232.035V235.44H78.4749V234.628H78.4514C78.1649 235.177 77.5403 235.525 76.8922 235.525ZM80.5368 229.33H81.5559V230.5H82.4952V231.303H81.5559V234.027C81.5559 234.454 81.7438 234.647 82.1571 234.647C82.2604 234.647 82.4248 234.637 82.4905 234.623V235.426C82.3778 235.454 82.1524 235.473 81.9269 235.473C80.9266 235.473 80.5368 235.093 80.5368 234.139V231.303H79.8182V230.5H80.5368V229.33ZM83.4347 229.33H84.4538V230.5H85.3931V231.303H84.4538V234.027C84.4538 234.454 84.6417 234.647 85.055 234.647C85.1583 234.647 85.3227 234.637 85.3884 234.623V235.426C85.2757 235.454 85.0503 235.473 84.8248 235.473C83.8245 235.473 83.4347 235.093 83.4347 234.139V231.303H82.7161V230.5H83.4347V229.33ZM88.0374 235.534C86.6238 235.534 85.6939 234.562 85.6939 232.97C85.6939 231.383 86.6285 230.41 88.0374 230.41C89.4463 230.41 90.3809 231.383 90.3809 232.97C90.3809 234.562 89.451 235.534 88.0374 235.534ZM88.0374 234.698C88.8358 234.698 89.3477 234.069 89.3477 232.97C89.3477 231.876 88.8311 231.246 88.0374 231.246C87.2437 231.246 86.7271 231.876 86.7271 232.97C86.7271 234.069 87.2437 234.698 88.0374 234.698ZM93.0957 235.534C91.682 235.534 90.7521 234.562 90.7521 232.97C90.7521 231.383 91.6867 230.41 93.0957 230.41C94.5046 230.41 95.4392 231.383 95.4392 232.97C95.4392 234.562 94.5093 235.534 93.0957 235.534ZM93.0957 234.698C93.894 234.698 94.406 234.069 94.406 232.97C94.406 231.876 93.8894 231.246 93.0957 231.246C92.302 231.246 91.7853 231.876 91.7853 232.97C91.7853 234.069 92.302 234.698 93.0957 234.698ZM97.7032 231.899C97.7032 231.016 98.4829 230.41 99.6382 230.41C100.737 230.41 101.507 231.026 101.54 231.904H100.587C100.54 231.458 100.178 231.181 99.61 231.181C99.0605 231.181 98.6942 231.448 98.6942 231.838C98.6942 232.143 98.9384 232.35 99.4503 232.477L100.282 232.669C101.277 232.909 101.653 233.285 101.653 234.013C101.653 234.914 100.812 235.534 99.6006 235.534C98.4312 235.534 97.6563 234.928 97.5764 234.022H98.5815C98.6613 234.496 99.0276 234.759 99.6476 234.759C100.258 234.759 100.634 234.506 100.634 234.107C100.634 233.792 100.446 233.618 99.9294 233.487L99.0464 233.271C98.1541 233.055 97.7032 232.59 97.7032 231.899ZM102.545 229.33H103.565V230.5H104.504V231.303H103.565V234.027C103.565 234.454 103.752 234.647 104.166 234.647C104.269 234.647 104.433 234.637 104.499 234.623V235.426C104.386 235.454 104.161 235.473 103.936 235.473C102.935 235.473 102.545 235.093 102.545 234.139V231.303H101.827V230.5H102.545V229.33ZM109.384 230.5V235.44H108.412V234.604H108.388C108.116 235.196 107.613 235.53 106.857 235.53C105.782 235.53 105.124 234.83 105.124 233.698V230.5H106.138V233.501C106.138 234.252 106.495 234.656 107.195 234.656C107.928 234.656 108.369 234.149 108.369 233.379V230.5H109.384ZM112.051 235.525C110.802 235.525 109.976 234.529 109.976 232.97C109.976 231.411 110.802 230.42 112.042 230.42C112.751 230.42 113.315 230.777 113.592 231.322H113.611V228.663H114.63V235.44H113.644V234.6H113.625C113.334 235.163 112.77 235.525 112.051 235.525ZM112.319 231.275C111.516 231.275 111.014 231.932 111.014 232.97C111.014 234.013 111.516 234.665 112.319 234.665C113.099 234.665 113.62 234.003 113.62 232.97C113.62 231.946 113.099 231.275 112.319 231.275ZM115.513 235.44V230.5H116.527V235.44H115.513ZM116.02 229.776C115.696 229.776 115.433 229.518 115.433 229.199C115.433 228.875 115.696 228.616 116.02 228.616C116.349 228.616 116.612 228.875 116.612 229.199C116.612 229.518 116.349 229.776 116.02 229.776ZM119.496 235.534C118.082 235.534 117.152 234.562 117.152 232.97C117.152 231.383 118.087 230.41 119.496 230.41C120.905 230.41 121.839 231.383 121.839 232.97C121.839 234.562 120.909 235.534 119.496 235.534ZM119.496 234.698C120.294 234.698 120.806 234.069 120.806 232.97C120.806 231.876 120.289 231.246 119.496 231.246C118.702 231.246 118.185 231.876 118.185 232.97C118.185 234.069 118.702 234.698 119.496 234.698Z" fill="black"/>
<g opacity="0.2">
<path d="M264.522 228.505H262.232V227.933C262.232 227.477 262.051 227.04 261.729 226.718C261.407 226.396 260.97 226.215 260.515 226.215H259.37C258.914 226.215 258.477 226.396 258.155 226.718C257.833 227.04 257.652 227.477 257.652 227.933V228.505H255.362C255.21 228.505 255.065 228.565 254.957 228.673C254.85 228.78 254.79 228.926 254.79 229.078C254.79 229.229 254.85 229.375 254.957 229.482C255.065 229.59 255.21 229.65 255.362 229.65H255.935V235.948C255.935 236.403 256.116 236.84 256.438 237.162C256.76 237.484 257.197 237.665 257.652 237.665H262.232C262.688 237.665 263.125 237.484 263.447 237.162C263.769 236.84 263.95 236.403 263.95 235.948V229.65H264.522C264.674 229.65 264.82 229.59 264.927 229.482C265.035 229.375 265.095 229.229 265.095 229.078C265.095 228.926 265.035 228.78 264.927 228.673C264.82 228.565 264.674 228.505 264.522 228.505ZM258.797 227.933C258.797 227.781 258.858 227.635 258.965 227.528C259.072 227.42 259.218 227.36 259.37 227.36H260.515C260.667 227.36 260.812 227.42 260.92 227.528C261.027 227.635 261.087 227.781 261.087 227.933V228.505H258.797V227.933ZM262.805 235.948C262.805 236.1 262.745 236.245 262.637 236.353C262.53 236.46 262.384 236.52 262.232 236.52H257.652C257.5 236.52 257.355 236.46 257.247 236.353C257.14 236.245 257.08 236.1 257.08 235.948V229.65H262.805V235.948Z" fill="black"/>
</g>
<rect width="239.084" height="28.52" transform="translate(33.4886 251.696)" fill="white"/>
<path d="M39.7512 269.456V264.516H40.7186V265.347H40.7421C40.9629 264.798 41.4795 264.431 42.1464 264.431C42.832 264.431 43.3299 264.784 43.5271 265.399H43.5506C43.8042 264.798 44.3866 264.431 45.091 264.431C46.0679 264.431 46.7066 265.079 46.7066 266.061V269.456H45.6875V266.305C45.6875 265.666 45.3446 265.3 44.7435 265.3C44.1424 265.3 43.7244 265.746 43.7244 266.371V269.456H42.7287V266.23C42.7287 265.662 42.3671 265.3 41.7941 265.3C41.193 265.3 40.7656 265.77 40.7656 266.404V269.456H39.7512ZM49.2241 268.738C49.9333 268.738 50.4874 268.249 50.4874 267.606V267.216L49.2711 267.291C48.6652 267.334 48.3224 267.601 48.3224 268.024C48.3224 268.456 48.6793 268.738 49.2241 268.738ZM48.9423 269.541C47.9748 269.541 47.2986 268.94 47.2986 268.052C47.2986 267.188 47.9608 266.657 49.1349 266.592L50.4874 266.512V266.131C50.4874 265.582 50.1164 265.253 49.4965 265.253C48.9094 265.253 48.5431 265.535 48.4539 265.976H47.4958C47.5522 265.084 48.313 264.427 49.5341 264.427C50.7317 264.427 51.4972 265.061 51.4972 266.052V269.456H50.525V268.644H50.5015C50.215 269.193 49.5904 269.541 48.9423 269.541ZM53.3525 266.634L55.3484 264.516H56.5413L54.4937 266.643L56.6212 269.456H55.4424L53.7657 267.263L53.3431 267.681V269.456H52.3286V262.68H53.3431V266.634H53.3525ZM58.7864 265.244C58.0773 265.244 57.5794 265.784 57.5278 266.531H59.9981C59.9746 265.774 59.4956 265.244 58.7864 265.244ZM59.9934 268.005H60.9562C60.8153 268.907 59.9605 269.55 58.8287 269.55C57.3775 269.55 56.4993 268.569 56.4993 267.01C56.4993 265.46 57.3916 264.427 58.7864 264.427C60.1578 264.427 61.0125 265.394 61.0125 266.892V267.24H57.5231V267.301C57.5231 268.16 58.0397 268.729 58.8522 268.729C59.4298 268.729 59.8572 268.437 59.9934 268.005ZM65.0988 268.738C65.808 268.738 66.3622 268.249 66.3622 267.606V267.216L65.1458 267.291C64.54 267.334 64.1971 267.601 64.1971 268.024C64.1971 268.456 64.554 268.738 65.0988 268.738ZM64.817 269.541C63.8496 269.541 63.1733 268.94 63.1733 268.052C63.1733 267.188 63.8355 266.657 65.0096 266.592L66.3622 266.512V266.131C66.3622 265.582 65.9912 265.253 65.3712 265.253C64.7842 265.253 64.4178 265.535 64.3286 265.976H63.3705C63.4269 265.084 64.1877 264.427 65.4088 264.427C66.6064 264.427 67.3719 265.061 67.3719 266.052V269.456H66.3997V268.644H66.3763C66.0898 269.193 65.4652 269.541 64.817 269.541ZM70.7394 264.436C71.9934 264.436 72.82 265.422 72.82 266.986C72.82 268.55 71.9981 269.541 70.7582 269.541C70.0491 269.541 69.4855 269.193 69.2037 268.644H69.1802V271.091H68.1658V264.516H69.1474V265.366H69.1661C69.4573 264.798 70.0256 264.436 70.7394 264.436ZM70.4718 268.682C71.2748 268.682 71.7774 268.024 71.7774 266.986C71.7774 265.953 71.2748 265.291 70.4718 265.291C69.6968 265.291 69.1755 265.967 69.1755 266.986C69.1755 268.015 69.6921 268.682 70.4718 268.682ZM75.9856 264.436C77.2395 264.436 78.0661 265.422 78.0661 266.986C78.0661 268.55 77.2442 269.541 76.0044 269.541C75.2952 269.541 74.7316 269.193 74.4498 268.644H74.4263V271.091H73.4119V264.516H74.3935V265.366H74.4123C74.7034 264.798 75.2717 264.436 75.9856 264.436ZM75.7179 268.682C76.521 268.682 77.0235 268.024 77.0235 266.986C77.0235 265.953 76.521 265.291 75.7179 265.291C74.943 265.291 74.4216 265.967 74.4216 266.986C74.4216 268.015 74.9383 268.682 75.7179 268.682ZM80.7808 269.55C79.3672 269.55 78.4373 268.578 78.4373 266.986C78.4373 265.399 79.3719 264.427 80.7808 264.427C82.1898 264.427 83.1243 265.399 83.1243 266.986C83.1243 268.578 82.1945 269.55 80.7808 269.55ZM80.7808 268.714C81.5792 268.714 82.0911 268.085 82.0911 266.986C82.0911 265.892 81.5745 265.263 80.7808 265.263C79.9871 265.263 79.4705 265.892 79.4705 266.986C79.4705 268.085 79.9871 268.714 80.7808 268.714ZM83.7492 269.456V264.516H84.7636V269.456H83.7492ZM84.2564 263.793C83.9323 263.793 83.6693 263.534 83.6693 263.215C83.6693 262.891 83.9323 262.633 84.2564 262.633C84.5851 262.633 84.8481 262.891 84.8481 263.215C84.8481 263.534 84.5851 263.793 84.2564 263.793ZM85.6091 269.456V264.516H86.5766V265.342H86.6001C86.8678 264.779 87.3938 264.431 88.1546 264.431C89.2442 264.431 89.8688 265.126 89.8688 266.258V269.456H88.8497V266.455C88.8497 265.713 88.5022 265.305 87.7977 265.305C87.0838 265.305 86.6236 265.812 86.6236 266.578V269.456H85.6091ZM90.9539 263.346H91.973V264.516H92.9123V265.319H91.973V268.043C91.973 268.47 92.1609 268.663 92.5742 268.663C92.6775 268.663 92.8419 268.653 92.9076 268.639V269.442C92.7949 269.471 92.5695 269.489 92.344 269.489C91.3437 269.489 90.9539 269.109 90.9539 268.156V265.319H90.2353V264.516H90.9539V263.346ZM93.5559 269.456V264.516H94.5234V265.347H94.5469C94.7676 264.798 95.2842 264.431 95.9511 264.431C96.6368 264.431 97.1346 264.784 97.3318 265.399H97.3553C97.6089 264.798 98.1913 264.431 98.8958 264.431C99.8726 264.431 100.511 265.079 100.511 266.061V269.456H99.4922V266.305C99.4922 265.666 99.1494 265.3 98.5482 265.3C97.9471 265.3 97.5291 265.746 97.5291 266.371V269.456H96.5335V266.23C96.5335 265.662 96.1718 265.3 95.5989 265.3C94.9977 265.3 94.5703 265.77 94.5703 266.404V269.456H93.5559ZM103.367 265.244C102.658 265.244 102.16 265.784 102.108 266.531H104.579C104.555 265.774 104.076 265.244 103.367 265.244ZM104.574 268.005H105.537C105.396 268.907 104.541 269.55 103.409 269.55C101.958 269.55 101.08 268.569 101.08 267.01C101.08 265.46 101.972 264.427 103.367 264.427C104.738 264.427 105.593 265.394 105.593 266.892V267.24H102.104V267.301C102.104 268.16 102.62 268.729 103.433 268.729C104.01 268.729 104.438 268.437 104.574 268.005ZM106.19 269.456V264.516H107.157V265.342H107.181C107.448 264.779 107.974 264.431 108.735 264.431C109.825 264.431 110.449 265.126 110.449 266.258V269.456H109.43V266.455C109.43 265.713 109.083 265.305 108.378 265.305C107.664 265.305 107.204 265.812 107.204 266.578V269.456H106.19ZM111.534 263.346H112.554V264.516H113.493V265.319H112.554V268.043C112.554 268.47 112.741 268.663 113.155 268.663C113.258 268.663 113.422 268.653 113.488 268.639V269.442C113.375 269.471 113.15 269.489 112.925 269.489C111.924 269.489 111.534 269.109 111.534 268.156V265.319H110.816V264.516H111.534V263.346Z" fill="black"/>
<g opacity="0.2">
<path d="M264.522 262.521H262.232V261.949C262.232 261.493 262.051 261.056 261.729 260.734C261.407 260.412 260.97 260.231 260.515 260.231H259.37C258.914 260.231 258.477 260.412 258.155 260.734C257.833 261.056 257.652 261.493 257.652 261.949V262.521H255.362C255.21 262.521 255.065 262.582 254.957 262.689C254.85 262.796 254.79 262.942 254.79 263.094C254.79 263.246 254.85 263.391 254.957 263.499C255.065 263.606 255.21 263.666 255.362 263.666H255.935V269.964C255.935 270.42 256.116 270.856 256.438 271.179C256.76 271.501 257.197 271.682 257.652 271.682H262.232C262.688 271.682 263.125 271.501 263.447 271.179C263.769 270.856 263.95 270.42 263.95 269.964V263.666H264.522C264.674 263.666 264.82 263.606 264.927 263.499C265.035 263.391 265.095 263.246 265.095 263.094C265.095 262.942 265.035 262.796 264.927 262.689C264.82 262.582 264.674 262.521 264.522 262.521ZM258.797 261.949C258.797 261.797 258.858 261.651 258.965 261.544C259.072 261.437 259.218 261.376 259.37 261.376H260.515C260.667 261.376 260.812 261.437 260.92 261.544C261.027 261.651 261.087 261.797 261.087 261.949V262.521H258.797V261.949ZM262.805 269.964C262.805 270.116 262.745 270.262 262.637 270.369C262.53 270.476 262.384 270.537 262.232 270.537H257.652C257.5 270.537 257.355 270.476 257.247 270.369C257.14 270.262 257.08 270.116 257.08 269.964V263.666H262.805V269.964Z" fill="black"/>
</g>
</g>
</g>
<defs>
<clipPath id="clip0_557_1689">
<rect width="304" height="281" fill="white"/>
</clipPath>
<clipPath id="clip1_557_1689">
<path d="M17 43.9237C17 32.9202 25.9201 24 36.9237 24H267.076C278.08 24 287 32.9201 287 43.9237V463.695H17V43.9237Z" fill="white"/>
</clipPath>
</defs>
</svg>
